<svg data-v-fde0c5aa="" xmlns="http://www.w3.org/2000/svg" viewBox="0 0 300 300" class="iconAboveSlogan"><!----><defs data-v-fde0c5aa=""><!----></defs><rect data-v-fde0c5aa="" fill="#F33446" x="0" y="0" width="300px" height="300px" class="logo-background-square"></rect><defs data-v-fde0c5aa=""><!----></defs><g data-v-fde0c5aa="" id="fdb7cc13-72c2-4ba6-8409-c4f60fdd08a9" fill="#ffffff" transform="matrix(2.978918465128037,0,0,2.978918465128037,17.080659847356163,146.82035099835875)"><path d="M1.82 5.75L0.98 5.75L0.98 5.19L4.34 5.19L4.34 5.19Q8.72 5.19 8.72 7.85L8.72 7.85L8.72 7.85Q8.72 9.70 6.55 10.26L6.55 10.26L6.55 10.36L6.55 10.36Q9.14 10.75 9.14 12.49L9.14 12.49L9.14 12.49Q9.14 13.75 7.99 14.37L7.99 14.37L7.99 14.37Q6.85 14.99 4.76 14.99L4.76 14.99L0.98 14.99L0.98 14.43L1.82 14.43L1.82 5.75ZM4.62 10.61L4.62 10.61L3.92 10.61L3.92 14.43L4.62 14.43L4.62 14.43Q5.63 14.43 6.30 13.93L6.30 13.93L6.30 13.93Q6.97 13.43 6.97 12.52L6.97 12.52L6.97 12.52Q6.97 11.62 6.30 11.12L6.30 11.12L6.30 11.12Q5.63 10.61 4.62 10.61ZM4.33 5.75L4.33 5.75L3.92 5.75L3.92 10.08L4.33 10.08L4.33 10.08Q5.32 10.08 5.97 9.49L5.97 9.49L5.97 9.49Q6.62 8.90 6.62 7.88L6.62 7.88L6.62 7.88Q6.62 6.86 5.97 6.31L5.97 6.31L5.97 6.31Q5.32 5.75 4.33 5.75ZM9.91 5.21L9.91 5.21Q10.32 4.79 10.94 4.54L10.94 4.54L10.94 4.54Q11.56 4.28 12.17 4.28L12.17 4.28L12.17 4.28Q12.78 4.28 13.17 4.53L13.17 4.53L13.17 4.53Q13.57 4.77 13.57 5.14L13.57 5.14L13.57 13.44L13.57 13.44Q13.57 13.82 13.75 14.04L13.75 14.04L13.75 14.04Q13.93 14.25 14.31 14.25L14.31 14.25L14.31 14.25Q14.69 14.25 15.18 13.85L15.18 13.85L15.43 14.18L15.43 14.18Q14.31 15.20 13.19 15.20L13.19 15.20L13.19 15.20Q11.47 15.20 11.47 13.15L11.47 13.15L11.47 4.96L11.47 4.96Q10.70 5.15 10.29 5.64L10.29 5.64L9.91 5.21ZM17.09 14.13L17.09 14.13L17.09 14.13Q16.06 13.06 16.06 11.49L16.06 11.49L16.06 11.49Q16.06 9.93 17.09 8.86L17.09 8.86L17.09 8.86Q18.12 7.78 19.77 7.78L19.77 7.78L19.77 7.78Q21.42 7.78 22.45 8.86L22.45 8.86L22.45 8.86Q23.48 9.93 23.48 11.49L23.48 11.49L23.48 11.49Q23.48 13.06 22.45 14.13L22.45 14.13L22.45 14.13Q21.42 15.20 19.77 15.20L19.77 15.20L19.77 15.20Q18.12 15.20 17.09 14.13ZM18.62 9.25L18.62 9.25L18.62 9.25Q18.23 10.12 18.23 11.49L18.23 11.49L18.23 11.49Q18.23 12.87 18.62 13.74L18.62 13.74L18.62 13.74Q19.01 14.62 19.78 14.62L19.78 14.62L19.78 14.62Q20.55 14.62 20.94 13.74L20.94 13.74L20.94 13.74Q21.34 12.87 21.34 11.49L21.34 11.49L21.34 11.49Q21.34 10.12 20.94 9.25L20.94 9.25L20.94 9.25Q20.55 8.37 19.78 8.37L19.78 8.37L19.78 8.37Q19.01 8.37 18.62 9.25ZM26.33 14.13L26.33 14.13L26.33 14.13Q25.30 13.06 25.30 11.49L25.30 11.49L25.30 11.49Q25.30 9.93 26.33 8.86L26.33 8.86L26.33 8.86Q27.36 7.78 29.01 7.78L29.01 7.78L29.01 7.78Q30.66 7.78 31.69 8.86L31.69 8.86L31.69 8.86Q32.72 9.93 32.72 11.49L32.72 11.49L32.72 11.49Q32.72 13.06 31.69 14.13L31.69 14.13L31.69 14.13Q30.66 15.20 29.01 15.20L29.01 15.20L29.01 15.20Q27.36 15.20 26.33 14.13ZM27.86 9.25L27.86 9.25L27.86 9.25Q27.47 10.12 27.47 11.49L27.47 11.49L27.47 11.49Q27.47 12.87 27.86 13.74L27.86 13.74L27.86 13.74Q28.25 14.62 29.02 14.62L29.02 14.62L29.02 14.62Q29.79 14.62 30.18 13.74L30.18 13.74L30.18 13.74Q30.58 12.87 30.58 11.49L30.58 11.49L30.58 11.49Q30.58 10.12 30.18 9.25L30.18 9.25L30.18 9.25Q29.79 8.37 29.02 8.37L29.02 8.37L29.02 8.37Q28.25 8.37 27.86 9.25ZM41.99 5.14L41.99 5.14L41.99 13.44L41.99 13.44Q41.99 13.82 42.17 14.04L42.17 14.04L42.17 14.04Q42.35 14.25 42.69 14.25L42.69 14.25L42.69 14.25Q43.04 14.25 43.53 13.85L43.53 13.85L43.85 14.18L43.85 14.18Q42.73 15.20 41.61 15.20L41.61 15.20L41.61 15.20Q40.28 15.20 39.97 13.96L39.97 13.96L39.97 13.96Q39.24 15.20 37.83 15.20L37.83 15.20L37.83 15.20Q36.22 15.20 35.38 14.16L35.38 14.16L35.38 14.16Q34.54 13.12 34.54 11.50L34.54 11.50L34.54 11.50Q34.54 9.88 35.44 8.83L35.44 8.83L35.44 8.83Q36.34 7.78 37.97 7.78L37.97 7.78L37.97 7.78Q39.21 7.78 39.89 8.78L39.89 8.78L39.89 4.96L39.89 4.96Q39.12 5.15 38.71 5.64L38.71 5.64L38.33 5.21L38.33 5.21Q38.74 4.79 39.36 4.54L39.36 4.54L39.36 4.54Q39.98 4.28 40.59 4.28L40.59 4.28L40.59 4.28Q41.20 4.28 41.59 4.53L41.59 4.53L41.59 4.53Q41.99 4.77 41.99 5.14ZM37.10 9.37L37.10 9.37L37.10 9.37Q36.71 10.15 36.71 11.49L36.71 11.49L36.71 11.49Q36.71 12.84 37.10 13.62L37.10 13.62L37.10 13.62Q37.49 14.41 38.30 14.41L38.30 14.41L38.30 14.41Q39.10 14.41 39.53 13.62L39.53 13.62L39.53 13.62Q39.96 12.82 39.96 11.49L39.96 11.49L39.96 11.49Q39.96 10.16 39.53 9.37L39.53 9.37L39.53 9.37Q39.10 8.58 38.30 8.58L38.30 8.58L38.30 8.58Q37.49 8.58 37.10 9.37ZM45.67 3.79L47.21 3.79L47.21 16.39L45.67 16.39L45.67 3.79ZM51.13 5.75L50.29 5.75L50.29 5.19L53.65 5.19L53.65 5.19Q58.03 5.19 58.03 7.85L58.03 7.85L58.03 7.85Q58.03 9.70 55.86 10.26L55.86 10.26L55.86 10.36L55.86 10.36Q58.45 10.75 58.45 12.49L58.45 12.49L58.45 12.49Q58.45 13.75 57.30 14.37L57.30 14.37L57.30 14.37Q56.15 14.99 54.07 14.99L54.07 14.99L50.29 14.99L50.29 14.43L51.13 14.43L51.13 5.75ZM53.93 10.61L53.93 10.61L53.23 10.61L53.23 14.43L53.93 14.43L53.93 14.43Q54.94 14.43 55.61 13.93L55.61 13.93L55.61 13.93Q56.28 13.43 56.28 12.52L56.28 12.52L56.28 12.52Q56.28 11.62 55.61 11.12L55.61 11.12L55.61 11.12Q54.94 10.61 53.93 10.61ZM53.63 5.75L53.63 5.75L53.23 5.75L53.23 10.08L53.63 10.08L53.63 10.08Q54.63 10.08 55.28 9.49L55.28 9.49L55.28 9.49Q55.93 8.90 55.93 7.88L55.93 7.88L55.93 7.88Q55.93 6.86 55.28 6.31L55.28 6.31L55.28 6.31Q54.63 5.75 53.63 5.75ZM65.48 7.99L67.58 7.99L67.58 13.44L67.58 13.44Q67.58 13.82 67.76 14.04L67.76 14.04L67.76 14.04Q67.94 14.25 68.32 14.25L68.32 14.25L68.32 14.25Q68.70 14.25 69.19 13.85L69.19 13.85L69.44 14.18L69.44 14.18Q68.32 15.20 67.20 15.20L67.20 15.20L67.20 15.20Q65.87 15.20 65.56 13.96L65.56 13.96L65.56 13.96Q64.83 15.20 63.42 15.20L63.42 15.20L63.42 15.20Q61.81 15.20 60.97 14.16L60.97 14.16L60.97 14.16Q60.13 13.12 60.13 11.50L60.13 11.50L60.13 11.50Q60.13 9.88 61.03 8.83L61.03 8.83L61.03 8.83Q61.94 7.78 63.56 7.78L63.56 7.78L63.56 7.78Q64.81 7.78 65.48 8.78L65.48 8.78L65.48 7.99ZM62.69 9.37L62.69 9.37L62.69 9.37Q62.30 10.15 62.30 11.49L62.30 11.49L62.30 11.49Q62.30 12.84 62.69 13.62L62.69 13.62L62.69 13.62Q63.08 14.41 63.89 14.41L63.89 14.41L63.89 14.41Q64.69 14.41 65.12 13.62L65.12 13.62L65.12 13.62Q65.55 12.82 65.55 11.49L65.55 11.49L65.55 11.49Q65.55 10.16 65.12 9.37L65.12 9.37L65.12 9.37Q64.69 8.58 63.89 8.58L63.89 8.58L63.89 8.58Q63.08 8.58 62.69 9.37ZM70.90 7.99L70.90 7.99L70.90 7.99Q72.04 7.99 72.97 8.69L72.97 8.69L72.97 8.69Q73.50 8.19 74.06 7.99L74.06 7.99L74.06 7.99Q74.62 7.78 75.49 7.78L75.49 7.78L75.49 7.78Q76.37 7.78 76.92 8.34L76.92 8.34L76.92 8.34Q77.48 8.89 77.48 9.84L77.48 9.84L77.48 13.44L77.48 13.44Q77.48 13.82 77.66 14.04L77.66 14.04L77.66 14.04Q77.84 14.25 78.22 14.25L78.22 14.25L78.22 14.25Q78.60 14.25 79.09 13.85L79.09 13.85L79.34 14.18L79.34 14.18Q78.22 15.20 77.10 15.20L77.10 15.20L77.10 15.20Q75.38 15.20 75.38 13.15L75.38 13.15L75.38 9.55L75.38 9.55Q75.38 9.11 75.11 8.88L75.11 8.88L75.11 8.88Q74.84 8.64 74.38 8.64L74.38 8.64L74.38 8.64Q73.91 8.64 73.45 9.02L73.45 9.02L73.45 9.02Q73.00 9.39 73.00 10.00L73.00 10.00L73.00 14.99L70.90 14.99L70.90 8.55L70.90 8.55Q70.27 8.55 69.78 8.76L69.78 8.76L69.58 8.25L69.58 8.25Q70.18 7.99 70.90 7.99ZM82.71 5.14L82.71 5.14L82.71 8.76L82.71 8.76Q83.47 7.78 85.04 7.78L85.04 7.78L85.04 7.78Q85.93 7.78 86.49 8.23L86.49 8.23L86.49 8.23Q87.05 8.68 87.05 9.36L87.05 9.36L87.05 9.36Q87.05 10.04 86.65 10.57L86.65 10.57L86.65 10.57Q86.24 11.10 85.54 11.44L85.54 11.44L86.38 13.62L86.38 13.62Q86.52 13.99 86.66 14.12L86.66 14.12L86.66 14.12Q86.80 14.25 87.05 14.25L87.05 14.25L87.05 14.25Q87.51 14.25 88.00 13.85L88.00 13.85L88.26 14.18L88.26 14.18Q87.14 15.20 85.94 15.20L85.94 15.20L85.94 15.20Q84.74 15.20 84.35 14.20L84.35 14.20L83.30 11.51L83.30 11.51Q84.07 11.33 84.58 10.75L84.58 10.75L84.58 10.75Q85.09 10.18 85.09 9.65L85.09 9.65L85.09 9.65Q85.09 9.11 84.83 8.88L84.83 8.88L84.83 8.88Q84.56 8.64 84.15 8.64L84.15 8.64L84.15 8.64Q83.48 8.64 83.10 9.18L83.10 9.18L83.10 9.18Q82.71 9.72 82.71 10.65L82.71 10.65L82.71 14.99L80.61 14.99L80.61 4.96L80.61 4.96Q79.84 5.15 79.44 5.64L79.44 5.64L79.06 5.21L79.06 5.21Q79.46 4.79 80.09 4.54L80.09 4.54L80.09 4.54Q80.71 4.28 81.32 4.28L81.32 4.28L81.32 4.28Q81.93 4.28 82.32 4.53L82.32 4.53L82.32 4.53Q82.71 4.77 82.71 5.14Z"></path></g><defs data-v-fde0c5aa=""><!----></defs><g data-v-fde0c5aa="" id="2262f521-7ccf-4e82-8bd4-2cd6b2357af7" stroke="none" fill="#fff" transform="matrix(0.5591776059800037,0,0,0.5591776059800037,122.042175315539,86.98857769963696)"><path d="M20.913 60.098a1.451 1.451 0 0 0 1.811-.966 22.568 22.568 0 0 1 1.582-3.814L48.858 9.524l24.554 45.797c1.157 2.205 1.921 4.391 2.358 6.577a1.452 1.452 0 0 0 2.847-.569c-.492-2.46-1.354-4.918-2.635-7.358l-.006-.011L50.138 5.766A1.446 1.446 0 0 0 48.858 5c-.537 0-1.026.292-1.279.766L21.74 53.959l-.008.014a25.58 25.58 0 0 0-1.786 4.313c-.232.768.2 1.579.967 1.812zM75.231 77.765a1.451 1.451 0 0 0-1.975.559C68.8 86.291 59.953 92.093 48.858 92.097c-12.311-.002-21.927-7.193-25.713-16.514a1.451 1.451 0 1 0-2.69 1.092C24.682 87.096 35.388 95.002 48.858 95c12.132.003 21.982-6.387 26.932-15.26.391-.7.141-1.584-.559-1.975z"></path><path d="M93.548 68.885H67.004l-6.277-18.971-.03-.066-.085-.191-.081-.118-.081-.113-.104-.102-.099-.093-.127-.083-.11-.069-.228-.09-.035-.014h-.002a1.443 1.443 0 0 0-.285-.051l-.11.002-.175.004a1.4 1.4 0 0 0-.28.062l-.003.001-.066.03-.191.085-.119.082-.112.08-.104.106-.092.098-.082.126-.069.11-.092.231-.012.031-.001.003-.002.006-4.872 17.064-3.218 11.211-2.39-11.107-5.461-26.62-.024-.078-.046-.149-.056-.125-.068-.124-.081-.115-.09-.107-.098-.094-.112-.091-.116-.074-.124-.066-.143-.055-.077-.03-.047-.008-.154-.026-.136-.013-.137.004-.158.016-.046.005-.077.024-.151.047-.124.055-.125.069-.114.08-.108.09-.094.098-.091.113-.074.116-.066.124-.055.143-.03.077-7.018 25.555H6.452a1.452 1.452 0 1 0 0 2.905h26.825l.088-.009.155-.016.134-.031.134-.042.131-.059.119-.065.115-.081.108-.089.094-.098.091-.11.077-.12.065-.12.057-.148.031-.081 5.707-20.78 4.244 20.687.003.014 3.611 16.774.021.065.047.147.055.126.069.122.08.116.091.106.097.096.113.089.116.076.122.063.143.057.064.026.06.011.154.028.137.012.139-.003.155-.017.061-.007.066-.021.147-.047.126-.055.122-.069.116-.08.106-.091.096-.097.089-.112.076-.116.063-.122.057-.143.026-.064 4.815-16.774L59.451 55.3l5.126 15.492.022.05.064.143.064.118.082.115.09.109.099.093.108.09.12.076.118.064.134.052.133.042.133.024.155.016.055.005h27.593a1.452 1.452 0 0 0 .001-2.904z"></path></g><defs data-v-fde0c5aa=""><!----></defs><g data-v-fde0c5aa="" id="e28c8315-71c4-48a0-b117-f57075f7e91b" fill="#ffffff" transform="matrix(0.3668309870960201,0,0,0.3668309870960201,52.39728732317582,204.43428058369474)"><path d="M0.28 3.64L0.28 3.64L0.28 3.64Q0.28 3.51 0.40 3.49L0.40 3.49L0.40 3.49Q0.52 3.47 0.99 3.47L0.99 3.47L2.21 3.47L2.21 3.47Q2.56 3.47 3.50 3.44L3.50 3.44L3.50 3.44Q4.44 3.42 4.94 3.42L4.94 3.42L4.94 3.42Q5.91 3.42 6.87 3.71L6.87 3.71L6.87 3.71Q7.84 4.00 8.65 4.56L8.65 4.56L8.65 4.56Q9.46 5.11 9.97 6.00L9.97 6.00L9.97 6.00Q10.47 6.89 10.47 7.98L10.47 7.98L10.47 7.98Q10.47 8.96 10.34 9.68L10.34 9.68L10.34 9.68Q10.21 10.40 9.90 10.93L9.90 10.93L9.90 10.93Q9.59 11.45 9.28 11.78L9.28 11.78L9.28 11.78Q8.97 12.11 8.44 12.56L8.44 12.56L8.44 12.56Q8.02 12.89 7.22 13.19L7.22 13.19L7.22 13.19Q6.43 13.48 5.59 13.48L5.59 13.48L5.59 13.48Q5.50 13.48 4.16 13.45L4.16 13.45L4.16 13.45Q2.81 13.41 2.23 13.41L2.23 13.41L2.23 13.41Q1.74 13.41 1.32 13.45L1.32 13.45L1.32 13.45Q0.90 13.48 0.83 13.48L0.83 13.48L0.83 13.48Q0.49 13.48 0.49 13.30L0.49 13.30L0.49 13.30Q0.49 13.19 0.54 13.14L0.54 13.14L0.54 13.14Q0.59 13.09 0.75 13.05L0.75 13.05L0.75 13.05Q0.91 13.01 0.98 12.98L0.98 12.98L0.98 12.98Q1.20 12.88 1.39 12.61L1.39 12.61L1.39 12.61Q1.58 12.33 1.58 12.07L1.58 12.07L1.58 12.07Q1.58 11.28 1.59 10.07L1.59 10.07L1.59 10.07Q1.60 8.85 1.60 8.27L1.60 8.27L1.60 8.27Q1.60 7.77 1.59 6.70L1.59 6.70L1.59 6.70Q1.58 5.63 1.58 4.72L1.58 4.72L1.58 4.72Q1.58 4.48 1.35 4.23L1.35 4.23L1.35 4.23Q1.12 3.99 0.84 3.98L0.84 3.98L0.84 3.98Q0.64 3.96 0.55 3.95L0.55 3.95L0.55 3.95Q0.46 3.93 0.37 3.86L0.37 3.86L0.37 3.86Q0.28 3.78 0.28 3.64ZM2.76 11.47L2.76 11.47L2.76 11.47Q2.76 11.73 2.77 11.90L2.77 11.90L2.77 11.90Q2.77 12.07 2.82 12.21L2.82 12.21L2.82 12.21Q2.87 12.35 2.90 12.40L2.90 12.40L2.90 12.40Q2.93 12.46 3.07 12.53L3.07 12.53L3.07 12.53Q3.21 12.60 3.28 12.62L3.28 12.62L3.28 12.62Q3.36 12.64 3.61 12.71L3.61 12.71L3.61 12.71Q3.86 12.78 4.03 12.82L4.03 12.82L4.03 12.82Q4.52 12.96 5.05 12.96L5.05 12.96L5.33 12.96L5.33 12.96Q6.29 12.96 6.96 12.69L6.96 12.69L6.96 12.69Q7.63 12.42 8.25 11.83L8.25 11.83L8.25 11.83Q9.28 10.84 9.28 8.61L9.28 8.61L9.28 8.61Q9.28 7.49 8.84 6.58L8.84 6.58L8.84 6.58Q8.40 5.67 7.69 5.13L7.69 5.13L7.69 5.13Q6.97 4.59 6.15 4.30L6.15 4.30L6.15 4.30Q5.32 4.02 4.48 4.02L4.48 4.02L4.48 4.02Q4.10 4.02 3.93 4.02L3.93 4.02L3.93 4.02Q3.75 4.02 3.52 4.05L3.52 4.05L3.52 4.05Q3.29 4.09 3.21 4.11L3.21 4.11L3.21 4.11Q3.14 4.13 3.02 4.25L3.02 4.25L3.02 4.25Q2.91 4.37 2.89 4.45L2.89 4.45L2.89 4.45Q2.87 4.54 2.83 4.78L2.83 4.78L2.83 4.78Q2.80 5.03 2.80 5.21L2.80 5.21L2.80 5.21Q2.80 5.39 2.80 5.80L2.80 5.80L2.80 5.80Q2.80 6.10 2.79 7.24L2.79 7.24L2.79 7.24Q2.77 8.39 2.77 8.48L2.77 8.48L2.77 8.48Q2.77 9.32 2.77 10.30L2.77 10.30L2.77 10.30Q2.76 11.28 2.76 11.47ZM18.70 8.69L18.70 8.69L18.70 8.69Q18.70 6.34 20.12 4.84L20.12 4.84L20.12 4.84Q21.53 3.33 24.12 3.33L24.12 3.33L24.12 3.33Q25.33 3.33 26.29 3.68L26.29 3.68L26.29 3.68Q27.26 4.03 27.82 4.54L27.82 4.54L27.82 4.54Q28.38 5.05 28.76 5.71L28.76 5.71L28.76 5.71Q29.13 6.37 29.27 6.92L29.27 6.92L29.27 6.92Q29.41 7.48 29.41 7.95L29.41 7.95L29.41 7.95Q29.41 9.86 28.67 11.16L28.67 11.16L28.67 11.16Q27.93 12.47 26.72 13.07L26.72 13.07L26.72 13.07Q25.51 13.66 23.93 13.66L23.93 13.66L23.93 13.66Q22.26 13.66 21.05 12.94L21.05 12.94L21.05 12.94Q19.84 12.21 19.27 11.10L19.27 11.10L19.27 11.10Q18.70 10.00 18.70 8.69ZM19.94 7.98L19.94 7.98L19.94 7.98Q19.94 8.54 20.09 9.19L20.09 9.19L20.09 9.19Q20.24 9.84 20.59 10.54L20.59 10.54L20.59 10.54Q20.94 11.23 21.44 11.78L21.44 11.78L21.44 11.78Q21.94 12.33 22.70 12.69L22.70 12.69L22.70 12.69Q23.46 13.05 24.37 13.05L24.37 13.05L24.37 13.05Q24.85 13.05 25.38 12.90L25.38 12.90L25.38 12.90Q25.90 12.75 26.42 12.45L26.42 12.45L26.42 12.45Q26.94 12.14 27.34 11.70L27.34 11.70L27.34 11.70Q27.75 11.26 28.01 10.62L28.01 10.62L28.01 10.62Q28.27 9.98 28.27 9.24L28.27 9.24L28.27 9.24Q28.27 6.71 26.94 5.30L26.94 5.30L26.94 5.30Q25.61 3.89 23.65 3.89L23.65 3.89L23.65 3.89Q22.11 3.89 21.02 4.93L21.02 4.93L21.02 4.93Q19.94 5.96 19.94 7.98ZM37.10 3.77L37.10 3.77L37.10 3.77Q37.10 3.68 37.20 3.60L37.20 3.60L37.20 3.60Q37.30 3.53 37.45 3.53L37.45 3.53L37.45 3.53Q37.53 3.53 37.73 3.54L37.73 3.54L37.73 3.54Q37.93 3.54 37.98 3.54L37.98 3.54L37.98 3.54Q38.19 3.54 38.37 3.53L38.37 3.53L38.37 3.53Q38.56 3.51 38.67 3.51L38.67 3.51L38.67 3.51Q38.79 3.51 38.96 3.59L38.96 3.59L38.96 3.59Q39.13 3.67 39.16 3.75L39.16 3.75L39.16 3.75Q39.19 3.79 39.31 3.94L39.31 3.94L39.31 3.94Q39.44 4.09 39.65 4.33L39.65 4.33L39.65 4.33Q39.86 4.56 40.03 4.79L40.03 4.79L40.03 4.79Q41.93 7.27 45.12 10.77L45.12 10.77L45.12 10.77Q45.21 10.86 45.33 10.99L45.33 10.99L45.33 10.99Q45.44 11.12 45.49 11.18L45.49 11.18L45.49 11.18Q45.54 11.24 45.60 11.30L45.60 11.30L45.60 11.30Q45.65 11.35 45.69 11.38L45.69 11.38L45.69 11.38Q45.72 11.40 45.75 11.40L45.75 11.40L45.75 11.40Q45.89 11.40 45.89 10.53L45.89 10.53L45.89 8.89L45.89 8.89Q45.89 7.95 45.88 7.31L45.88 7.31L45.88 7.31Q45.88 6.66 45.87 6.38L45.87 6.38L45.87 6.38Q45.86 6.09 45.86 6.02L45.86 6.02L45.86 5.92L45.86 5.92Q45.86 5.45 45.80 5.11L45.80 5.11L45.80 5.11Q45.74 4.77 45.65 4.59L45.65 4.59L45.65 4.59Q45.57 4.41 45.41 4.28L45.41 4.28L45.41 4.28Q45.25 4.16 45.14 4.12L45.14 4.12L45.14 4.12Q45.02 4.09 44.81 4.05L44.81 4.05L44.81 4.05Q44.60 4.00 44.52 3.98L44.52 3.98L44.52 3.98Q44.24 3.89 44.24 3.74L44.24 3.74L44.24 3.74Q44.24 3.53 44.51 3.53L44.51 3.53L44.51 3.53Q44.59 3.53 45.18 3.54L45.18 3.54L45.18 3.54Q45.77 3.54 45.84 3.54L45.84 3.54L45.84 3.54Q46.17 3.54 46.59 3.53L46.59 3.53L46.59 3.53Q47.00 3.51 47.10 3.51L47.10 3.51L47.10 3.51Q47.33 3.51 47.42 3.56L47.42 3.56L47.42 3.56Q47.52 3.61 47.52 3.75L47.52 3.75L47.52 3.75Q47.52 3.81 47.44 3.86L47.44 3.86L47.44 3.86Q47.36 3.91 47.28 3.94L47.28 3.94L47.28 3.94Q47.19 3.98 47.11 4.00L47.11 4.00L47.03 4.03L47.03 4.03Q46.56 4.28 46.56 5.61L46.56 5.61L46.56 6.15L46.56 6.15Q46.56 7.21 46.49 9.83L46.49 9.83L46.49 9.83Q46.41 12.46 46.41 13.08L46.41 13.08L46.41 13.36L46.41 13.36Q46.41 13.68 46.21 13.68L46.21 13.68L46.21 13.68Q46.09 13.68 45.99 13.58L45.99 13.58L45.99 13.58Q41.34 8.19 40.44 7.17L40.44 7.17L40.44 7.17Q39.54 6.16 39.44 6.16L39.44 6.16L39.44 6.16Q39.30 6.16 39.30 7.11L39.30 7.11L39.30 7.11Q39.30 8.44 39.24 9.97L39.24 9.97L39.24 9.97Q39.19 11.51 39.19 11.65L39.19 11.65L39.19 11.65Q39.19 12.28 39.40 12.61L39.40 12.61L39.40 12.61Q39.62 12.94 39.87 12.98L39.87 12.98L39.87 12.98Q40.12 13.02 40.34 13.07L40.34 13.07L40.34 13.07Q40.56 13.12 40.56 13.26L40.56 13.26L40.56 13.26Q40.56 13.41 40.51 13.45L40.51 13.45L40.51 13.45Q40.46 13.50 40.33 13.50L40.33 13.50L40.33 13.50Q40.24 13.50 39.89 13.48L39.89 13.48L39.89 13.48Q39.55 13.47 38.84 13.47L38.84 13.47L38.84 13.47Q38.71 13.47 38.32 13.48L38.32 13.48L38.32 13.48Q37.93 13.50 37.65 13.50L37.65 13.50L37.65 13.50Q37.34 13.50 37.34 13.27L37.34 13.27L37.34 13.27Q37.34 13.15 37.52 13.11L37.52 13.11L37.52 13.11Q37.70 13.08 37.97 12.89L37.97 12.89L37.97 12.89Q38.23 12.71 38.37 12.21L38.37 12.21L38.37 12.21Q38.46 11.89 38.58 9.60L38.58 9.60L38.58 9.60Q38.71 7.32 38.71 6.45L38.71 6.45L38.71 6.45Q38.71 5.25 38.37 4.65L38.37 4.65L38.37 4.65Q38.04 4.06 37.28 3.98L37.28 3.98L37.28 3.98Q37.10 3.96 37.10 3.77ZM55.08 13.33L55.08 13.33L55.08 13.33Q55.08 13.13 55.29 13.06L55.29 13.06L55.29 13.06Q55.73 12.89 56.07 12.31L56.07 12.31L56.07 12.31Q56.41 11.73 57.74 8.83L57.74 8.83L57.74 8.83Q59.11 5.87 60.16 3.63L60.16 3.63L60.16 3.63Q60.26 3.42 60.33 3.36L60.33 3.36L60.33 3.36Q60.41 3.30 60.58 3.30L60.58 3.30L60.58 3.30Q60.70 3.30 60.75 3.36L60.75 3.36L60.75 3.36Q60.79 3.42 60.93 3.82L60.93 3.82L60.93 3.82Q61.01 4.06 61.08 4.23L61.08 4.23L61.08 4.23Q61.14 4.40 61.28 4.77L61.28 4.77L61.28 4.77Q61.42 5.15 61.59 5.56L61.59 5.56L61.59 5.56Q62.03 6.66 63.13 9.22L63.13 9.22L63.13 9.22Q64.23 11.77 64.33 11.98L64.33 11.98L64.33 11.98Q64.57 12.46 64.86 12.71L64.86 12.71L64.86 12.71Q65.16 12.95 65.37 12.97L65.37 12.97L65.37 12.97Q65.59 12.99 65.74 13.04L65.74 13.04L65.74 13.04Q65.88 13.09 65.88 13.26L65.88 13.26L65.88 13.26Q65.88 13.47 65.51 13.47L65.51 13.47L65.51 13.47Q65.35 13.47 64.90 13.43L64.90 13.43L64.90 13.43Q64.46 13.38 64.25 13.38L64.25 13.38L64.25 13.38Q63.98 13.38 63.56 13.41L63.56 13.41L63.56 13.41Q63.14 13.44 62.94 13.44L62.94 13.44L62.94 13.44Q62.51 13.44 62.39 13.40L62.39 13.40L62.39 13.40Q62.27 13.37 62.27 13.24L62.27 13.24L62.27 13.24Q62.27 13.15 62.38 13.08L62.38 13.08L62.38 13.08Q62.50 13.02 62.62 13.00L62.62 13.00L62.62 13.00Q62.75 12.98 62.86 12.87L62.86 12.87L62.86 12.87Q62.97 12.77 62.97 12.59L62.97 12.59L62.97 12.59Q62.97 12.28 62.62 11.33L62.62 11.33L62.62 11.33Q62.27 10.37 62.03 9.93L62.03 9.93L62.03 9.93Q61.91 9.69 61.46 9.69L61.46 9.69L61.46 9.69Q61.39 9.69 60.84 9.70L60.84 9.70L60.84 9.70Q60.30 9.72 59.77 9.72L59.77 9.72L59.02 9.72L59.02 9.72Q58.39 9.72 58.23 9.79L58.23 9.79L58.23 9.79Q58.07 9.86 57.95 10.12L57.95 10.12L57.95 10.12Q57.86 10.30 57.67 10.70L57.67 10.70L57.67 10.70Q57.47 11.10 57.40 11.26L57.40 11.26L57.40 11.26Q57.33 11.41 57.23 11.65L57.23 11.65L57.23 11.65Q57.12 11.90 57.09 12.05L57.09 12.05L57.09 12.05Q57.05 12.19 57.05 12.31L57.05 12.31L57.05 12.31Q57.05 12.63 57.21 12.80L57.21 12.80L57.21 12.80Q57.37 12.96 57.57 12.98L57.57 12.98L57.57 12.98Q57.76 13.01 57.93 13.06L57.93 13.06L57.93 13.06Q58.09 13.12 58.09 13.26L58.09 13.26L58.09 13.26Q58.09 13.36 58.04 13.40L58.04 13.40L58.04 13.40Q58.00 13.45 57.85 13.45L57.85 13.45L57.85 13.45Q57.76 13.45 57.37 13.45L57.37 13.45L57.37 13.45Q56.97 13.44 56.69 13.44L56.69 13.44L56.69 13.44Q56.38 13.44 55.99 13.47L55.99 13.47L55.99 13.47Q55.61 13.50 55.48 13.50L55.48 13.50L55.48 13.50Q55.08 13.50 55.08 13.33ZM58.59 8.71L58.59 8.71L58.59 8.71Q58.59 8.89 58.72 8.93L58.72 8.93L58.72 8.93Q58.84 8.97 59.30 8.97L59.30 8.97L59.74 8.97L61.07 8.96L61.07 8.96Q61.61 8.96 61.61 8.74L61.61 8.74L61.61 8.74Q61.61 8.55 60.93 7.01L60.93 7.01L60.93 7.01Q60.24 5.46 60.06 5.46L60.06 5.46L60.06 5.46Q59.93 5.46 59.26 7.01L59.26 7.01L59.26 7.01Q58.59 8.55 58.59 8.71ZM72.21 5.32L72.21 5.32L72.21 5.32Q72.21 4.76 72.35 3.88L72.35 3.88L72.35 3.88Q72.35 3.85 72.36 3.78L72.36 3.78L72.36 3.78Q72.37 3.71 72.37 3.69L72.37 3.69L72.37 3.69Q72.38 3.67 72.39 3.62L72.39 3.62L72.39 3.62Q72.39 3.57 72.41 3.55L72.41 3.55L72.41 3.55Q72.42 3.53 72.44 3.49L72.44 3.49L72.44 3.49Q72.46 3.46 72.49 3.44L72.49 3.44L72.49 3.44Q72.52 3.43 72.56 3.42L72.56 3.42L72.56 3.42Q72.60 3.40 72.66 3.39L72.66 3.39L72.66 3.39Q72.72 3.39 72.79 3.39L72.79 3.39L72.79 3.39Q73.01 3.39 73.97 3.44L73.97 3.44L73.97 3.44Q74.93 3.50 76.73 3.50L76.73 3.50L76.73 3.50Q79.81 3.50 81.05 3.43L81.05 3.43L81.05 3.43Q81.06 3.43 81.09 3.42L81.09 3.42L81.09 3.42Q81.13 3.42 81.14 3.42L81.14 3.42L81.14 3.42Q81.30 3.42 81.35 3.50L81.35 3.50L81.35 3.50Q81.41 3.58 81.41 3.65L81.41 3.65L81.41 3.65Q81.41 3.75 81.45 4.24L81.45 4.24L81.45 4.24Q81.49 4.73 81.49 4.79L81.49 4.79L81.49 4.79Q81.49 5.14 81.45 5.23L81.45 5.23L81.45 5.23Q81.41 5.32 81.27 5.32L81.27 5.32L81.27 5.32Q81.16 5.32 81.12 5.15L81.12 5.15L81.12 5.15Q81.00 4.75 80.92 4.60L80.92 4.60L80.92 4.60Q80.84 4.45 80.56 4.34L80.56 4.34L80.56 4.34Q80.28 4.23 79.70 4.23L79.70 4.23L77.88 4.23L77.88 4.23Q77.55 4.23 77.47 4.36L77.47 4.36L77.47 4.36Q77.39 4.49 77.39 5.12L77.39 5.12L77.39 5.81L77.39 5.81Q77.39 7.69 77.37 9.11L77.37 9.11L77.37 9.11Q77.35 10.54 77.35 10.93L77.35 10.93L77.35 10.93Q77.35 11.13 77.34 11.43L77.34 11.43L77.34 11.43Q77.34 11.73 77.34 11.84L77.34 11.84L77.34 11.84Q77.34 12.45 77.53 12.64L77.53 12.64L77.53 12.64Q77.71 12.81 77.94 12.90L77.94 12.90L77.94 12.90Q78.16 12.99 78.32 13.01L78.32 13.01L78.32 13.01Q78.48 13.02 78.60 13.08L78.60 13.08L78.60 13.08Q78.71 13.13 78.71 13.26L78.71 13.26L78.71 13.26Q78.71 13.41 78.64 13.45L78.64 13.45L78.64 13.45Q78.57 13.50 78.37 13.50L78.37 13.50L78.37 13.50Q78.20 13.50 77.63 13.44L77.63 13.44L77.63 13.44Q77.06 13.38 76.82 13.38L76.82 13.38L76.82 13.38Q76.65 13.38 76.14 13.43L76.14 13.43L76.14 13.43Q75.63 13.48 75.39 13.48L75.39 13.48L75.39 13.48Q74.87 13.48 74.87 13.26L74.87 13.26L74.87 13.26Q74.87 13.12 74.96 13.07L74.96 13.07L74.96 13.07Q75.04 13.02 75.28 12.98L75.28 12.98L75.28 12.98Q75.53 12.95 75.60 12.94L75.60 12.94L75.60 12.94Q76.08 12.82 76.13 12.38L76.13 12.38L76.13 12.38Q76.27 11.14 76.27 7.08L76.27 7.08L76.26 4.58L76.26 4.58Q76.26 4.31 76.10 4.25L76.10 4.25L76.10 4.25Q75.95 4.19 75.19 4.19L75.19 4.19L75.19 4.19Q74.21 4.19 73.72 4.24L73.72 4.24L73.72 4.24Q73.22 4.30 73.14 4.35L73.14 4.35L73.14 4.35Q73.05 4.40 72.94 4.54L72.94 4.54L72.94 4.54Q72.81 4.70 72.74 4.91L72.74 4.91L72.74 4.91Q72.66 5.11 72.64 5.24L72.64 5.24L72.64 5.24Q72.62 5.38 72.56 5.47L72.56 5.47L72.56 5.47Q72.49 5.56 72.37 5.56L72.37 5.56L72.37 5.56Q72.21 5.56 72.21 5.32ZM89.05 3.65L89.05 3.65L89.05 3.65Q89.05 3.46 89.45 3.46L89.45 3.46L89.45 3.46Q89.50 3.46 89.63 3.47L89.63 3.47L89.63 3.47Q89.75 3.49 89.82 3.49L89.82 3.49L89.82 3.49Q89.87 3.49 91.14 3.52L91.14 3.52L91.14 3.52Q92.41 3.56 93.24 3.56L93.24 3.56L93.24 3.56Q93.53 3.56 94.69 3.53L94.69 3.53L94.69 3.53Q95.84 3.50 96.04 3.50L96.04 3.50L96.04 3.50Q96.31 3.50 96.31 3.82L96.31 3.82L96.31 3.82Q96.31 3.91 96.22 4.38L96.22 4.38L96.22 4.38Q96.14 4.84 96.14 5.25L96.14 5.25L96.14 5.25Q96.14 5.38 96.07 5.47L96.07 5.47L96.07 5.47Q96.00 5.56 95.91 5.56L95.91 5.56L95.91 5.56Q95.70 5.56 95.70 5.26L95.70 5.26L95.70 5.26Q95.70 4.89 95.47 4.58L95.47 4.58L95.47 4.58Q95.23 4.27 94.88 4.26L94.88 4.26L94.88 4.26Q93.62 4.16 92.95 4.16L92.95 4.16L92.58 4.16L92.58 4.16Q91.85 4.16 91.73 4.26L91.73 4.26L91.73 4.26Q91.62 4.37 91.59 5.01L91.59 5.01L91.59 5.01Q91.53 6.02 91.53 7.35L91.53 7.35L91.53 7.35Q91.53 8.05 91.80 8.06L91.80 8.06L92.15 8.06L92.74 8.06L93.17 8.06L93.17 8.06Q94.01 8.06 94.29 8.01L94.29 8.01L94.29 8.01Q94.57 7.95 94.79 7.80L94.79 7.80L94.79 7.80Q95.06 7.62 95.12 7.28L95.12 7.28L95.12 7.28Q95.16 7.04 95.31 7.04L95.31 7.04L95.31 7.04Q95.44 7.04 95.47 7.08L95.47 7.08L95.47 7.08Q95.49 7.13 95.49 7.27L95.49 7.27L95.49 7.27Q95.49 7.36 95.44 7.91L95.44 7.91L95.44 7.91Q95.38 8.46 95.38 8.74L95.38 8.74L95.38 8.74Q95.38 9.00 95.40 9.24L95.40 9.24L95.40 9.24Q95.42 9.48 95.42 9.59L95.42 9.59L95.42 9.59Q95.42 9.94 95.33 9.94L95.33 9.94L95.33 9.94Q95.12 9.94 95.02 9.60L95.02 9.60L95.02 9.60Q94.82 9.02 94.67 8.92L94.67 8.92L94.67 8.92Q94.37 8.72 93.32 8.72L93.32 8.72L93.32 8.72Q92.90 8.72 92.64 8.72L92.64 8.72L92.64 8.72Q92.39 8.72 92.31 8.71L92.31 8.71L92.31 8.71Q92.23 8.71 92.18 8.71L92.18 8.71L92.18 8.71Q92.13 8.71 92.09 8.71L92.09 8.71L92.09 8.71Q91.52 8.71 91.52 8.97L91.52 8.97L91.52 8.97Q91.52 9.38 91.50 9.99L91.50 9.99L91.50 9.99Q91.49 10.60 91.49 10.99L91.49 10.99L91.49 11.55L91.49 11.55Q91.49 12.56 91.83 12.66L91.83 12.66L91.83 12.66Q92.18 12.77 92.43 12.77L92.43 12.77L92.43 12.77Q93.48 12.77 94.27 12.67L94.27 12.67L94.27 12.67Q95.06 12.57 95.46 12.42L95.46 12.42L95.46 12.42Q95.86 12.28 96.12 12.10L96.12 12.10L96.12 12.10Q96.39 11.93 96.47 11.78L96.47 11.78L96.47 11.78Q96.54 11.63 96.62 11.54L96.62 11.54L96.62 11.54Q96.70 11.44 96.78 11.44L96.78 11.44L96.78 11.44Q96.95 11.44 96.95 11.68L96.95 11.68L96.95 11.68Q96.95 12.28 96.35 12.89L96.35 12.89L96.35 12.89Q95.75 13.51 95.30 13.51L95.30 13.51L95.30 13.51Q94.29 13.51 93.02 13.44L93.02 13.44L93.02 13.44Q91.76 13.37 91.45 13.37L91.45 13.37L91.45 13.37Q91.06 13.37 90.47 13.43L90.47 13.43L90.47 13.43Q89.88 13.50 89.54 13.50L89.54 13.50L89.54 13.50Q89.25 13.50 89.25 13.36L89.25 13.36L89.25 13.36Q89.25 13.23 89.25 13.19L89.25 13.19L89.25 13.19Q89.25 13.15 89.29 13.12L89.29 13.12L89.29 13.12Q89.33 13.09 89.38 13.08L89.38 13.08L89.38 13.08Q89.43 13.08 89.56 13.03L89.56 13.03L89.56 13.03Q89.70 12.99 89.85 12.92L89.85 12.92L89.85 12.92Q90.19 12.75 90.29 12.26L90.29 12.26L90.29 12.26Q90.40 11.77 90.40 10.21L90.40 10.21L90.40 8.47L90.40 8.47Q90.40 8.09 90.42 7.29L90.42 7.29L90.42 7.29Q90.44 6.50 90.44 6.05L90.44 6.05L90.44 6.05Q90.44 5.67 90.41 4.77L90.41 4.77L90.41 4.77Q90.40 4.37 90.06 4.14L90.06 4.14L90.06 4.14Q89.73 3.92 89.28 3.91L89.28 3.91L89.28 3.91Q89.05 3.91 89.05 3.65ZM114.49 5.32L114.49 5.32L114.49 5.32Q114.49 4.76 114.63 3.88L114.63 3.88L114.63 3.88Q114.63 3.85 114.64 3.78L114.64 3.78L114.64 3.78Q114.65 3.71 114.65 3.69L114.65 3.69L114.65 3.69Q114.66 3.67 114.67 3.62L114.67 3.62L114.67 3.62Q114.67 3.57 114.69 3.55L114.69 3.55L114.69 3.55Q114.70 3.53 114.72 3.49L114.72 3.49L114.72 3.49Q114.74 3.46 114.77 3.44L114.77 3.44L114.77 3.44Q114.80 3.43 114.84 3.42L114.84 3.42L114.84 3.42Q114.88 3.40 114.94 3.39L114.94 3.39L114.94 3.39Q115.00 3.39 115.07 3.39L115.07 3.39L115.07 3.39Q115.29 3.39 116.25 3.44L116.25 3.44L116.25 3.44Q117.21 3.50 119.01 3.50L119.01 3.50L119.01 3.50Q122.09 3.50 123.33 3.43L123.33 3.43L123.33 3.43Q123.34 3.43 123.38 3.42L123.38 3.42L123.38 3.42Q123.41 3.42 123.42 3.42L123.42 3.42L123.42 3.42Q123.58 3.42 123.63 3.50L123.63 3.50L123.63 3.50Q123.69 3.58 123.69 3.65L123.69 3.65L123.69 3.65Q123.69 3.75 123.73 4.24L123.73 4.24L123.73 4.24Q123.77 4.73 123.77 4.79L123.77 4.79L123.77 4.79Q123.77 5.14 123.73 5.23L123.73 5.23L123.73 5.23Q123.69 5.32 123.55 5.32L123.55 5.32L123.55 5.32Q123.44 5.32 123.40 5.15L123.40 5.15L123.40 5.15Q123.28 4.75 123.20 4.60L123.20 4.60L123.20 4.60Q123.12 4.45 122.84 4.34L122.84 4.34L122.84 4.34Q122.56 4.23 121.98 4.23L121.98 4.23L120.16 4.23L120.16 4.23Q119.83 4.23 119.75 4.36L119.75 4.36L119.75 4.36Q119.67 4.49 119.67 5.12L119.67 5.12L119.67 5.81L119.67 5.81Q119.67 7.69 119.65 9.11L119.65 9.11L119.65 9.11Q119.63 10.54 119.63 10.93L119.63 10.93L119.63 10.93Q119.63 11.13 119.62 11.43L119.62 11.43L119.62 11.43Q119.62 11.73 119.62 11.84L119.62 11.84L119.62 11.84Q119.62 12.45 119.81 12.64L119.81 12.64L119.81 12.64Q119.99 12.81 120.22 12.90L120.22 12.90L120.22 12.90Q120.44 12.99 120.60 13.01L120.60 13.01L120.60 13.01Q120.76 13.02 120.88 13.08L120.88 13.08L120.88 13.08Q120.99 13.13 120.99 13.26L120.99 13.26L120.99 13.26Q120.99 13.41 120.92 13.45L120.92 13.45L120.92 13.45Q120.85 13.50 120.65 13.50L120.65 13.50L120.65 13.50Q120.48 13.50 119.91 13.44L119.91 13.44L119.91 13.44Q119.34 13.38 119.10 13.38L119.10 13.38L119.10 13.38Q118.93 13.38 118.42 13.43L118.42 13.43L118.42 13.43Q117.91 13.48 117.67 13.48L117.67 13.48L117.67 13.48Q117.15 13.48 117.15 13.26L117.15 13.26L117.15 13.26Q117.15 13.12 117.24 13.07L117.24 13.07L117.24 13.07Q117.32 13.02 117.56 12.98L117.56 12.98L117.56 12.98Q117.81 12.95 117.88 12.94L117.88 12.94L117.88 12.94Q118.36 12.82 118.41 12.38L118.41 12.38L118.41 12.38Q118.55 11.14 118.55 7.08L118.55 7.08L118.54 4.58L118.54 4.58Q118.54 4.31 118.38 4.25L118.38 4.25L118.38 4.25Q118.23 4.19 117.47 4.19L117.47 4.19L117.47 4.19Q116.49 4.19 116.00 4.24L116.00 4.24L116.00 4.24Q115.50 4.30 115.42 4.35L115.42 4.35L115.42 4.35Q115.33 4.40 115.22 4.54L115.22 4.54L115.22 4.54Q115.09 4.70 115.02 4.91L115.02 4.91L115.02 4.91Q114.94 5.11 114.92 5.24L114.92 5.24L114.92 5.24Q114.90 5.38 114.84 5.47L114.84 5.47L114.84 5.47Q114.77 5.56 114.65 5.56L114.65 5.56L114.65 5.56Q114.49 5.56 114.49 5.32ZM131.67 8.69L131.67 8.69L131.67 8.69Q131.67 6.34 133.08 4.84L133.08 4.84L133.08 4.84Q134.50 3.33 137.09 3.33L137.09 3.33L137.09 3.33Q138.29 3.33 139.26 3.68L139.26 3.68L139.26 3.68Q140.22 4.03 140.78 4.54L140.78 4.54L140.78 4.54Q141.34 5.05 141.72 5.71L141.72 5.71L141.72 5.71Q142.10 6.37 142.24 6.92L142.24 6.92L142.24 6.92Q142.38 7.48 142.38 7.95L142.38 7.95L142.38 7.95Q142.38 9.86 141.64 11.16L141.64 11.16L141.64 11.16Q140.90 12.47 139.69 13.07L139.69 13.07L139.69 13.07Q138.47 13.66 136.89 13.66L136.89 13.66L136.89 13.66Q135.23 13.66 134.02 12.94L134.02 12.94L134.02 12.94Q132.80 12.21 132.24 11.10L132.24 11.10L132.24 11.10Q131.67 10.00 131.67 8.69ZM132.90 7.98L132.90 7.98L132.90 7.98Q132.90 8.54 133.06 9.19L133.06 9.19L133.06 9.19Q133.21 9.84 133.56 10.54L133.56 10.54L133.56 10.54Q133.91 11.23 134.41 11.78L134.41 11.78L134.41 11.78Q134.90 12.33 135.67 12.69L135.67 12.69L135.67 12.69Q136.43 13.05 137.34 13.05L137.34 13.05L137.34 13.05Q137.82 13.05 138.34 12.90L138.34 12.90L138.34 12.90Q138.87 12.75 139.38 12.45L139.38 12.45L139.38 12.45Q139.90 12.14 140.31 11.70L140.31 11.70L140.31 11.70Q140.71 11.26 140.97 10.62L140.97 10.62L140.97 10.62Q141.23 9.98 141.23 9.24L141.23 9.24L141.23 9.24Q141.23 6.71 139.90 5.30L139.90 5.30L139.90 5.30Q138.57 3.89 136.61 3.89L136.61 3.89L136.61 3.89Q135.07 3.89 133.99 4.93L133.99 4.93L133.99 4.93Q132.90 5.96 132.90 7.98ZM150.28 3.64L150.28 3.64L150.28 3.64Q150.28 3.51 150.40 3.49L150.40 3.49L150.40 3.49Q150.51 3.47 150.99 3.47L150.99 3.47L152.21 3.47L152.21 3.47Q152.56 3.47 153.50 3.44L153.50 3.44L153.50 3.44Q154.43 3.42 154.94 3.42L154.94 3.42L154.94 3.42Q155.90 3.42 156.87 3.71L156.87 3.71L156.87 3.71Q157.84 4.00 158.65 4.56L158.65 4.56L158.65 4.56Q159.46 5.11 159.96 6.00L159.96 6.00L159.96 6.00Q160.47 6.89 160.47 7.98L160.47 7.98L160.47 7.98Q160.47 8.96 160.34 9.68L160.34 9.68L160.34 9.68Q160.20 10.40 159.89 10.93L159.89 10.93L159.89 10.93Q159.59 11.45 159.28 11.78L159.28 11.78L159.28 11.78Q158.97 12.11 158.44 12.56L158.44 12.56L158.44 12.56Q158.02 12.89 157.22 13.19L157.22 13.19L157.22 13.19Q156.42 13.48 155.58 13.48L155.58 13.48L155.58 13.48Q155.50 13.48 154.15 13.45L154.15 13.45L154.15 13.45Q152.81 13.41 152.22 13.41L152.22 13.41L152.22 13.41Q151.73 13.41 151.31 13.45L151.31 13.45L151.31 13.45Q150.89 13.48 150.82 13.48L150.82 13.48L150.82 13.48Q150.49 13.48 150.49 13.30L150.49 13.30L150.49 13.30Q150.49 13.19 150.53 13.14L150.53 13.14L150.53 13.14Q150.58 13.09 150.75 13.05L150.75 13.05L150.75 13.05Q150.91 13.01 150.98 12.98L150.98 12.98L150.98 12.98Q151.20 12.88 151.39 12.61L151.39 12.61L151.39 12.61Q151.58 12.33 151.58 12.07L151.58 12.07L151.58 12.07Q151.58 11.28 151.59 10.07L151.59 10.07L151.59 10.07Q151.59 8.85 151.59 8.27L151.59 8.27L151.59 8.27Q151.59 7.77 151.59 6.70L151.59 6.70L151.59 6.70Q151.58 5.63 151.58 4.72L151.58 4.72L151.58 4.72Q151.58 4.48 151.35 4.23L151.35 4.23L151.35 4.23Q151.12 3.99 150.84 3.98L150.84 3.98L150.84 3.98Q150.64 3.96 150.55 3.95L150.55 3.95L150.55 3.95Q150.46 3.93 150.37 3.86L150.37 3.86L150.37 3.86Q150.28 3.78 150.28 3.64ZM152.75 11.47L152.75 11.47L152.75 11.47Q152.75 11.73 152.76 11.90L152.76 11.90L152.76 11.90Q152.77 12.07 152.82 12.21L152.82 12.21L152.82 12.21Q152.87 12.35 152.89 12.40L152.89 12.40L152.89 12.40Q152.92 12.46 153.06 12.53L153.06 12.53L153.06 12.53Q153.20 12.60 153.28 12.62L153.28 12.62L153.28 12.62Q153.36 12.64 153.61 12.71L153.61 12.71L153.61 12.71Q153.86 12.78 154.03 12.82L154.03 12.82L154.03 12.82Q154.52 12.96 155.05 12.96L155.05 12.96L155.33 12.96L155.33 12.96Q156.28 12.96 156.95 12.69L156.95 12.69L156.95 12.69Q157.63 12.42 158.24 11.83L158.24 11.83L158.24 11.83Q159.28 10.84 159.28 8.61L159.28 8.61L159.28 8.61Q159.28 7.49 158.84 6.58L158.84 6.58L158.84 6.58Q158.40 5.67 157.68 5.13L157.68 5.13L157.68 5.13Q156.97 4.59 156.14 4.30L156.14 4.30L156.14 4.30Q155.32 4.02 154.48 4.02L154.48 4.02L154.48 4.02Q154.10 4.02 153.92 4.02L153.92 4.02L153.92 4.02Q153.75 4.02 153.52 4.05L153.52 4.05L153.52 4.05Q153.29 4.09 153.21 4.11L153.21 4.11L153.21 4.11Q153.13 4.13 153.02 4.25L153.02 4.25L153.02 4.25Q152.91 4.37 152.89 4.45L152.89 4.45L152.89 4.45Q152.87 4.54 152.83 4.78L152.83 4.78L152.83 4.78Q152.80 5.03 152.80 5.21L152.80 5.21L152.80 5.21Q152.80 5.39 152.80 5.80L152.80 5.80L152.80 5.80Q152.80 6.10 152.78 7.24L152.78 7.24L152.78 7.24Q152.77 8.39 152.77 8.48L152.77 8.48L152.77 8.48Q152.77 9.32 152.76 10.30L152.76 10.30L152.76 10.30Q152.75 11.28 152.75 11.47ZM167.68 13.33L167.68 13.33L167.68 13.33Q167.68 13.13 167.89 13.06L167.89 13.06L167.89 13.06Q168.34 12.89 168.67 12.31L168.67 12.31L168.67 12.31Q169.01 11.73 170.34 8.83L170.34 8.83L170.34 8.83Q171.71 5.87 172.76 3.63L172.76 3.63L172.76 3.63Q172.86 3.42 172.94 3.36L172.94 3.36L172.94 3.36Q173.01 3.30 173.18 3.30L173.18 3.30L173.18 3.30Q173.31 3.30 173.35 3.36L173.35 3.36L173.35 3.36Q173.39 3.42 173.53 3.82L173.53 3.82L173.53 3.82Q173.61 4.06 173.68 4.23L173.68 4.23L173.68 4.23Q173.74 4.40 173.88 4.77L173.88 4.77L173.88 4.77Q174.02 5.15 174.19 5.56L174.19 5.56L174.19 5.56Q174.64 6.66 175.73 9.22L175.73 9.22L175.73 9.22Q176.83 11.77 176.93 11.98L176.93 11.98L176.93 11.98Q177.17 12.46 177.46 12.71L177.46 12.71L177.46 12.71Q177.76 12.95 177.97 12.97L177.97 12.97L177.97 12.97Q178.19 12.99 178.34 13.04L178.34 13.04L178.34 13.04Q178.49 13.09 178.49 13.26L178.49 13.26L178.49 13.26Q178.49 13.47 178.11 13.47L178.11 13.47L178.11 13.47Q177.95 13.47 177.51 13.43L177.51 13.43L177.51 13.43Q177.06 13.38 176.85 13.38L176.85 13.38L176.85 13.38Q176.58 13.38 176.16 13.41L176.16 13.41L176.16 13.41Q175.74 13.44 175.55 13.44L175.55 13.44L175.55 13.44Q175.11 13.44 174.99 13.40L174.99 13.40L174.99 13.40Q174.87 13.37 174.87 13.24L174.87 13.24L174.87 13.24Q174.87 13.15 174.99 13.08L174.99 13.08L174.99 13.08Q175.10 13.02 175.22 13.00L175.22 13.00L175.22 13.00Q175.35 12.98 175.46 12.87L175.46 12.87L175.46 12.87Q175.57 12.77 175.57 12.59L175.57 12.59L175.57 12.59Q175.57 12.28 175.22 11.33L175.22 11.33L175.22 11.33Q174.87 10.37 174.64 9.93L174.64 9.93L174.64 9.93Q174.51 9.69 174.06 9.69L174.06 9.69L174.06 9.69Q173.99 9.69 173.45 9.70L173.45 9.70L173.45 9.70Q172.90 9.72 172.37 9.72L172.37 9.72L171.63 9.72L171.63 9.72Q171.00 9.72 170.84 9.79L170.84 9.79L170.84 9.79Q170.67 9.86 170.55 10.12L170.55 10.12L170.55 10.12Q170.46 10.30 170.27 10.70L170.27 10.70L170.27 10.70Q170.07 11.10 170.00 11.26L170.00 11.26L170.00 11.26Q169.93 11.41 169.83 11.65L169.83 11.65L169.83 11.65Q169.72 11.90 169.69 12.05L169.69 12.05L169.69 12.05Q169.65 12.19 169.65 12.31L169.65 12.31L169.65 12.31Q169.65 12.63 169.81 12.80L169.81 12.80L169.81 12.80Q169.97 12.96 170.17 12.98L170.17 12.98L170.17 12.98Q170.37 13.01 170.53 13.06L170.53 13.06L170.53 13.06Q170.69 13.12 170.69 13.26L170.69 13.26L170.69 13.26Q170.69 13.36 170.65 13.40L170.65 13.40L170.65 13.40Q170.60 13.45 170.45 13.45L170.45 13.45L170.45 13.45Q170.37 13.45 169.97 13.45L169.97 13.45L169.97 13.45Q169.57 13.44 169.29 13.44L169.29 13.44L169.29 13.44Q168.98 13.44 168.59 13.47L168.59 13.47L168.59 13.47Q168.21 13.50 168.08 13.50L168.08 13.50L168.08 13.50Q167.68 13.50 167.68 13.33ZM171.19 8.71L171.19 8.71L171.19 8.71Q171.19 8.89 171.32 8.93L171.32 8.93L171.32 8.93Q171.44 8.97 171.91 8.97L171.91 8.97L172.34 8.97L173.67 8.96L173.67 8.96Q174.22 8.96 174.22 8.74L174.22 8.74L174.22 8.74Q174.22 8.55 173.53 7.01L173.53 7.01L173.53 7.01Q172.84 5.46 172.66 5.46L172.66 5.46L172.66 5.46Q172.54 5.46 171.86 7.01L171.86 7.01L171.86 7.01Q171.19 8.55 171.19 8.71ZM184.00 3.81L184.00 3.81L184.00 3.81Q184.00 3.65 184.16 3.61L184.16 3.61L184.16 3.61Q184.32 3.57 184.87 3.57L184.87 3.57L184.87 3.57Q184.95 3.57 185.25 3.58L185.25 3.58L185.25 3.58Q185.56 3.60 185.68 3.60L185.68 3.60L185.68 3.60Q185.84 3.60 186.25 3.59L186.25 3.59L186.25 3.59Q186.66 3.58 186.87 3.58L186.87 3.58L186.87 3.58Q187.57 3.58 187.57 3.75L187.57 3.75L187.57 3.75Q187.57 3.91 187.28 4.01L187.28 4.01L187.28 4.01Q186.98 4.12 186.98 4.24L186.98 4.24L186.98 4.24Q186.98 4.38 187.07 4.61L187.07 4.61L187.07 4.61Q187.17 4.83 187.26 4.97L187.26 4.97L187.26 4.97Q187.35 5.11 187.53 5.38L187.53 5.38L187.53 5.38Q187.71 5.64 187.74 5.70L187.74 5.70L187.74 5.70Q188.22 6.45 188.73 7.14L188.73 7.14L188.73 7.14Q189.24 7.83 189.31 7.83L189.31 7.83L189.31 7.83Q189.39 7.83 189.52 7.66L189.52 7.66L189.52 7.66Q189.64 7.50 189.87 7.13L189.87 7.13L189.87 7.13Q190.09 6.75 190.25 6.52L190.25 6.52L190.25 6.52Q190.29 6.45 190.45 6.22L190.45 6.22L190.45 6.22Q190.61 5.98 190.67 5.88L190.67 5.88L190.67 5.88Q190.74 5.78 190.86 5.58L190.86 5.58L190.86 5.58Q190.99 5.38 191.04 5.27L191.04 5.27L191.04 5.27Q191.10 5.17 191.18 5.02L191.18 5.02L191.18 5.02Q191.25 4.87 191.28 4.77L191.28 4.77L191.28 4.77Q191.31 4.68 191.31 4.59L191.31 4.59L191.31 4.59Q191.31 4.14 190.83 4.03L190.83 4.03L190.83 4.03Q190.78 4.02 190.67 4.00L190.67 4.00L190.67 4.00Q190.57 3.99 190.52 3.98L190.52 3.98L190.52 3.98Q190.47 3.96 190.40 3.93L190.40 3.93L190.40 3.93Q190.33 3.91 190.30 3.86L190.30 3.86L190.30 3.86Q190.27 3.81 190.27 3.74L190.27 3.74L190.27 3.74Q190.27 3.57 190.67 3.57L190.67 3.57L190.67 3.57Q190.74 3.57 190.92 3.58L190.92 3.58L190.92 3.58Q191.11 3.58 191.24 3.58L191.24 3.58L191.24 3.58Q191.56 3.58 192.02 3.59L192.02 3.59L192.02 3.59Q192.47 3.60 192.72 3.60L192.72 3.60L192.72 3.60Q193.41 3.60 193.41 3.81L193.41 3.81L193.41 3.81Q193.41 3.86 193.33 3.91L193.33 3.91L193.33 3.91Q193.24 3.95 193.09 4.02L193.09 4.02L193.09 4.02Q192.93 4.09 192.81 4.19L192.81 4.19L192.81 4.19Q192.23 4.63 191.12 6.31L191.12 6.31L191.12 6.31Q190.01 7.99 189.85 8.19L189.85 8.19L189.85 8.19Q189.63 8.47 189.57 8.81L189.57 8.81L189.57 8.81Q189.52 9.14 189.52 9.95L189.52 9.95L189.52 9.95Q189.52 10.14 189.52 10.73L189.52 10.73L189.52 10.73Q189.53 11.33 189.53 11.58L189.53 11.58L189.53 11.91L189.53 11.91Q189.53 12.38 189.69 12.64L189.69 12.64L189.69 12.64Q189.85 12.91 189.99 12.96L189.99 12.96L189.99 12.96Q190.13 13.01 190.27 13.01L190.27 13.01L190.27 13.01Q190.30 13.01 190.41 13.01L190.41 13.01L190.41 13.01Q190.53 13.02 190.55 13.02L190.55 13.02L190.55 13.02Q190.65 13.02 190.71 13.08L190.71 13.08L190.71 13.08Q190.76 13.15 190.76 13.22L190.76 13.22L190.76 13.22Q190.76 13.36 190.69 13.40L190.69 13.40L190.69 13.40Q190.62 13.44 190.43 13.44L190.43 13.44L190.43 13.44Q190.36 13.44 189.82 13.43L189.82 13.43L189.82 13.43Q189.28 13.43 189.03 13.43L189.03 13.43L189.03 13.43Q188.54 13.43 188.13 13.45L188.13 13.45L188.13 13.45Q187.73 13.48 187.49 13.48L187.49 13.48L187.49 13.48Q187.10 13.48 187.10 13.33L187.10 13.33L187.10 13.33Q187.10 13.20 187.17 13.15L187.17 13.15L187.17 13.15Q187.25 13.10 187.43 13.09L187.43 13.09L187.43 13.09Q187.61 13.08 187.70 13.05L187.70 13.05L187.70 13.05Q188.29 12.87 188.29 12.19L188.29 12.19L188.29 12.19Q188.29 12.11 188.29 11.92L188.29 11.92L188.29 11.92Q188.30 11.73 188.31 11.12L188.31 11.12L188.31 11.12Q188.31 10.50 188.31 9.35L188.31 9.35L188.31 9.35Q188.31 9.13 188.28 8.97L188.28 8.97L188.28 8.97Q188.24 8.81 188.19 8.65L188.19 8.65L188.19 8.65Q188.15 8.50 187.96 8.20L187.96 8.20L187.96 8.20Q187.77 7.91 187.59 7.64L187.59 7.64L187.59 7.64Q187.40 7.36 186.96 6.72L186.96 6.72L186.96 6.72Q186.52 6.08 186.12 5.46L186.12 5.46L186.12 5.46Q185.68 4.80 185.33 4.46L185.33 4.46L185.33 4.46Q184.98 4.12 184.79 4.05L184.79 4.05L184.79 4.05Q184.60 3.99 184.35 3.99L184.35 3.99L184.35 3.99Q184.00 3.99 184.00 3.81ZM199.70 12.68L199.70 12.68L199.70 12.68Q199.70 12.61 199.74 12.54L199.74 12.54L199.74 12.54Q199.78 12.47 199.83 12.42L199.83 12.42L199.83 12.42Q199.88 12.38 199.98 12.29L199.98 12.29L199.98 12.29Q200.07 12.19 200.13 12.14L200.13 12.14L200.13 12.14Q200.17 12.10 200.24 12.00L200.24 12.00L200.24 12.00Q200.31 11.90 200.37 11.84L200.37 11.84L200.37 11.84Q200.42 11.79 200.51 11.74L200.51 11.74L200.51 11.74Q200.61 11.69 200.72 11.69L200.72 11.69L200.72 11.69Q200.79 11.69 201.00 11.86L201.00 11.86L201.00 11.86Q201.21 12.03 201.45 12.46L201.45 12.46L201.45 12.46Q201.68 12.89 201.68 13.44L201.68 13.44L201.68 13.44Q201.68 14.32 201.06 15.04L201.06 15.04L201.06 15.04Q200.44 15.76 200.06 15.76L200.06 15.76L200.06 15.76Q199.85 15.76 199.85 15.58L199.85 15.58L199.85 15.58Q199.85 15.48 199.98 15.36L199.98 15.36L199.98 15.36Q200.12 15.23 200.28 15.10L200.28 15.10L200.28 15.10Q200.45 14.97 200.58 14.71L200.58 14.71L200.58 14.71Q200.72 14.45 200.72 14.11L200.72 14.11L200.72 14.11Q200.72 13.83 200.59 13.62L200.59 13.62L200.59 13.62Q200.47 13.40 200.36 13.31L200.36 13.31L200.36 13.31Q200.26 13.22 199.93 12.98L199.93 12.98L199.93 12.98Q199.75 12.85 199.72 12.82L199.72 12.82L199.72 12.82Q199.70 12.78 199.70 12.68ZM220.25 10.82L220.25 10.82L220.25 10.82Q220.25 10.53 220.44 10.53L220.44 10.53L220.44 10.53Q220.63 10.53 220.67 10.67L220.67 10.67L220.67 10.67Q220.81 11.00 220.93 11.25L220.93 11.25L220.93 11.25Q221.05 11.49 221.31 11.85L221.31 11.85L221.31 11.85Q221.58 12.21 221.89 12.44L221.89 12.44L221.89 12.44Q222.19 12.67 222.68 12.84L222.68 12.84L222.68 12.84Q223.16 13.01 223.73 13.01L223.73 13.01L223.73 13.01Q224.78 13.01 225.42 12.45L225.42 12.45L225.42 12.45Q226.06 11.90 226.06 11.00L226.06 11.00L226.06 11.00Q226.06 10.35 225.62 9.90L225.62 9.90L225.62 9.90Q225.19 9.46 224.63 9.27L224.63 9.27L224.63 9.27Q224.07 9.09 223.21 8.77L223.21 8.77L223.21 8.77Q222.35 8.46 221.80 8.13L221.80 8.13L221.80 8.13Q220.53 7.38 220.53 6.08L220.53 6.08L220.53 6.08Q220.53 4.83 221.43 4.08L221.43 4.08L221.43 4.08Q222.33 3.33 223.78 3.33L223.78 3.33L223.78 3.33Q224.31 3.33 225.04 3.56L225.04 3.56L225.04 3.56Q225.78 3.79 225.79 3.79L225.79 3.79L225.79 3.79Q225.83 3.79 225.95 3.74L225.95 3.74L225.95 3.74Q226.06 3.68 226.11 3.68L226.11 3.68L226.11 3.68Q226.30 3.68 226.32 3.79L226.32 3.79L226.32 3.79Q226.62 5.49 226.62 5.70L226.62 5.70L226.62 5.70Q226.62 6.09 226.42 6.09L226.42 6.09L226.42 6.09Q226.30 6.09 226.23 5.89L226.23 5.89L226.23 5.89Q226.06 5.49 225.90 5.24L225.90 5.24L225.90 5.24Q225.74 4.98 225.67 4.91L225.67 4.91L225.67 4.91Q225.60 4.84 225.30 4.58L225.30 4.58L225.30 4.58Q224.55 3.91 223.47 3.91L223.47 3.91L223.47 3.91Q222.60 3.91 222.01 4.33L222.01 4.33L222.01 4.33Q221.42 4.75 221.42 5.46L221.42 5.46L221.42 5.46Q221.42 6.09 221.77 6.50L221.77 6.50L221.77 6.50Q222.11 6.90 222.68 7.13L222.68 7.13L222.68 7.13Q223.26 7.35 223.89 7.55L223.89 7.55L223.89 7.55Q224.52 7.74 225.22 8.09L225.22 8.09L225.22 8.09Q225.93 8.44 226.39 8.93L226.39 8.93L226.39 8.93Q226.95 9.53 226.95 10.43L226.95 10.43L226.95 10.43Q226.95 11.90 226.02 12.76L226.02 12.76L226.02 12.76Q225.08 13.62 223.69 13.62L223.69 13.62L223.69 13.62Q222.73 13.62 222.14 13.52L222.14 13.52L222.14 13.52Q221.55 13.41 220.93 13.09L220.93 13.09L220.93 13.09Q220.75 12.98 220.50 12.00L220.50 12.00L220.50 12.00Q220.25 11.02 220.25 10.82ZM234.64 13.33L234.64 13.33L234.64 13.33Q234.64 13.13 234.85 13.06L234.85 13.06L234.85 13.06Q235.30 12.89 235.63 12.31L235.63 12.31L235.63 12.31Q235.97 11.73 237.30 8.83L237.30 8.83L237.30 8.83Q238.67 5.87 239.72 3.63L239.72 3.63L239.72 3.63Q239.82 3.42 239.90 3.36L239.90 3.36L239.90 3.36Q239.97 3.30 240.14 3.30L240.14 3.30L240.14 3.30Q240.27 3.30 240.31 3.36L240.31 3.36L240.31 3.36Q240.35 3.42 240.49 3.82L240.49 3.82L240.49 3.82Q240.58 4.06 240.64 4.23L240.64 4.23L240.64 4.23Q240.70 4.40 240.84 4.77L240.84 4.77L240.84 4.77Q240.98 5.15 241.15 5.56L241.15 5.56L241.15 5.56Q241.60 6.66 242.70 9.22L242.70 9.22L242.70 9.22Q243.80 11.77 243.89 11.98L243.89 11.98L243.89 11.98Q244.13 12.46 244.43 12.71L244.43 12.71L244.43 12.71Q244.72 12.95 244.94 12.97L244.94 12.97L244.94 12.97Q245.15 12.99 245.30 13.04L245.30 13.04L245.30 13.04Q245.45 13.09 245.45 13.26L245.45 13.26L245.45 13.26Q245.45 13.47 245.07 13.47L245.07 13.47L245.07 13.47Q244.92 13.47 244.47 13.43L244.47 13.43L244.47 13.43Q244.02 13.38 243.81 13.38L243.81 13.38L243.81 13.38Q243.54 13.38 243.12 13.41L243.12 13.41L243.12 13.41Q242.70 13.44 242.51 13.44L242.51 13.44L242.51 13.44Q242.07 13.44 241.95 13.40L241.95 13.40L241.95 13.40Q241.84 13.37 241.84 13.24L241.84 13.24L241.84 13.24Q241.84 13.15 241.95 13.08L241.95 13.08L241.95 13.08Q242.06 13.02 242.19 13.00L242.19 13.00L242.19 13.00Q242.31 12.98 242.42 12.87L242.42 12.87L242.42 12.87Q242.54 12.77 242.54 12.59L242.54 12.59L242.54 12.59Q242.54 12.28 242.19 11.33L242.19 11.33L242.19 11.33Q241.84 10.37 241.60 9.93L241.60 9.93L241.60 9.93Q241.47 9.69 241.02 9.69L241.02 9.69L241.02 9.69Q240.95 9.69 240.41 9.70L240.41 9.70L240.41 9.70Q239.86 9.72 239.33 9.72L239.33 9.72L238.59 9.72L238.59 9.72Q237.96 9.72 237.80 9.79L237.80 9.79L237.80 9.79Q237.64 9.86 237.51 10.12L237.51 10.12L237.51 10.12Q237.43 10.30 237.23 10.70L237.23 10.70L237.23 10.70Q237.03 11.10 236.96 11.26L236.96 11.26L236.96 11.26Q236.89 11.41 236.79 11.65L236.79 11.65L236.79 11.65Q236.68 11.90 236.65 12.05L236.65 12.05L236.65 12.05Q236.61 12.19 236.61 12.31L236.61 12.31L236.61 12.31Q236.61 12.63 236.77 12.80L236.77 12.80L236.77 12.80Q236.94 12.96 237.13 12.98L237.13 12.98L237.13 12.98Q237.33 13.01 237.49 13.06L237.49 13.06L237.49 13.06Q237.65 13.12 237.65 13.26L237.65 13.26L237.65 13.26Q237.65 13.36 237.61 13.40L237.61 13.40L237.61 13.40Q237.57 13.45 237.41 13.45L237.41 13.45L237.41 13.45Q237.33 13.45 236.93 13.45L236.93 13.45L236.93 13.45Q236.53 13.44 236.25 13.44L236.25 13.44L236.25 13.44Q235.94 13.44 235.56 13.47L235.56 13.47L235.56 13.47Q235.17 13.50 235.05 13.50L235.05 13.50L235.05 13.50Q234.64 13.50 234.64 13.33ZM238.15 8.71L238.15 8.71L238.15 8.71Q238.15 8.89 238.28 8.93L238.28 8.93L238.28 8.93Q238.41 8.97 238.87 8.97L238.87 8.97L239.30 8.97L240.63 8.96L240.63 8.96Q241.18 8.96 241.18 8.74L241.18 8.74L241.18 8.74Q241.18 8.55 240.49 7.01L240.49 7.01L240.49 7.01Q239.81 5.46 239.62 5.46L239.62 5.46L239.62 5.46Q239.50 5.46 238.83 7.01L238.83 7.01L238.83 7.01Q238.15 8.55 238.15 8.71ZM251.03 3.70L251.03 3.70L251.03 3.70Q251.03 3.50 251.43 3.50L251.43 3.50L251.43 3.50Q251.50 3.50 251.96 3.53L251.96 3.53L251.96 3.53Q252.43 3.56 252.97 3.56L252.97 3.56L252.97 3.56Q253.09 3.56 253.41 3.54L253.41 3.54L253.41 3.54Q253.72 3.53 253.88 3.53L253.88 3.53L253.88 3.53Q254.20 3.53 254.27 3.56L254.27 3.56L254.27 3.56Q254.34 3.58 254.34 3.68L254.34 3.68L254.34 3.68Q254.34 3.77 254.20 3.84L254.20 3.84L254.20 3.84Q254.06 3.91 253.91 4.02L253.91 4.02L253.91 4.02Q253.76 4.14 253.76 4.34L253.76 4.34L253.76 4.34Q253.76 4.52 253.81 4.71L253.81 4.71L253.81 4.71Q253.86 4.90 254.03 5.29L254.03 5.29L254.03 5.29Q254.20 5.68 254.37 6.08L254.37 6.08L254.37 6.08Q254.55 6.47 254.95 7.34L254.95 7.34L254.95 7.34Q255.35 8.22 255.72 9.07L255.72 9.07L255.72 9.07Q256.90 11.77 257.12 11.77L257.12 11.77L257.12 11.77Q257.19 11.77 257.93 10.08L257.93 10.08L257.93 10.08Q258.66 8.39 259.38 6.54L259.38 6.54L259.38 6.54Q260.09 4.69 260.09 4.35L260.09 4.35L260.09 4.35Q260.09 4.13 259.93 4.01L259.93 4.01L259.93 4.01Q259.77 3.89 259.59 3.87L259.59 3.87L259.59 3.87Q259.41 3.85 259.24 3.80L259.24 3.80L259.24 3.80Q259.08 3.75 259.08 3.64L259.08 3.64L259.08 3.64Q259.08 3.54 259.13 3.52L259.13 3.52L259.13 3.52Q259.18 3.50 259.38 3.50L259.38 3.50L259.38 3.50Q259.42 3.50 259.70 3.51L259.70 3.51L259.70 3.51Q259.98 3.51 260.26 3.51L260.26 3.51L260.26 3.51Q260.51 3.51 260.83 3.50L260.83 3.50L260.83 3.50Q261.14 3.49 261.51 3.49L261.51 3.49L261.51 3.49Q261.77 3.49 261.77 3.68L261.77 3.68L261.77 3.68Q261.77 3.78 261.68 3.85L261.68 3.85L261.68 3.85Q261.59 3.92 261.46 3.98L261.46 3.98L261.46 3.98Q261.34 4.03 261.17 4.21L261.17 4.21L261.17 4.21Q261.00 4.40 260.88 4.69L260.88 4.69L257.75 11.80L257.75 11.80Q257.42 12.56 257.10 13.34L257.10 13.34L257.10 13.34Q256.94 13.72 256.90 13.79L256.90 13.79L256.90 13.79Q256.86 13.86 256.79 13.86L256.79 13.86L256.79 13.86Q256.54 13.86 256.16 12.89L256.16 12.89L256.16 12.89Q255.79 11.98 254.72 9.65L254.72 9.65L254.72 9.65Q254.18 8.48 253.75 7.50L253.75 7.50L253.75 7.50Q253.32 6.52 253.13 6.06L253.13 6.06L253.13 6.06Q252.94 5.60 252.78 5.24L252.78 5.24L252.78 5.24Q252.62 4.87 252.53 4.72L252.53 4.72L252.53 4.72Q252.45 4.56 252.34 4.44L252.34 4.44L252.34 4.44Q252.10 4.17 251.84 4.06L251.84 4.06L251.84 4.06Q251.58 3.95 251.42 3.96L251.42 3.96L251.42 3.96Q251.26 3.96 251.15 3.91L251.15 3.91L251.15 3.91Q251.03 3.86 251.03 3.70ZM269.33 3.65L269.33 3.65L269.33 3.65Q269.33 3.46 269.72 3.46L269.72 3.46L269.72 3.46Q269.78 3.46 269.91 3.47L269.91 3.47L269.91 3.47Q270.03 3.49 270.10 3.49L270.10 3.49L270.10 3.49Q270.14 3.49 271.42 3.52L271.42 3.52L271.42 3.52Q272.69 3.56 273.52 3.56L273.52 3.56L273.52 3.56Q273.81 3.56 274.97 3.53L274.97 3.53L274.97 3.53Q276.12 3.50 276.32 3.50L276.32 3.50L276.32 3.50Q276.58 3.50 276.58 3.82L276.58 3.82L276.58 3.82Q276.58 3.91 276.50 4.38L276.50 4.38L276.50 4.38Q276.42 4.84 276.42 5.25L276.42 5.25L276.42 5.25Q276.42 5.38 276.35 5.47L276.35 5.47L276.35 5.47Q276.28 5.56 276.19 5.56L276.19 5.56L276.19 5.56Q275.98 5.56 275.98 5.26L275.98 5.26L275.98 5.26Q275.98 4.89 275.74 4.58L275.74 4.58L275.74 4.58Q275.51 4.27 275.16 4.26L275.16 4.26L275.16 4.26Q273.90 4.16 273.22 4.16L273.22 4.16L272.86 4.16L272.86 4.16Q272.13 4.16 272.01 4.26L272.01 4.26L272.01 4.26Q271.89 4.37 271.87 5.01L271.87 5.01L271.87 5.01Q271.81 6.02 271.81 7.35L271.81 7.35L271.81 7.35Q271.81 8.05 272.08 8.06L272.08 8.06L272.43 8.06L273.01 8.06L273.45 8.06L273.45 8.06Q274.29 8.06 274.57 8.01L274.57 8.01L274.57 8.01Q274.85 7.95 275.07 7.80L275.07 7.80L275.07 7.80Q275.34 7.62 275.39 7.28L275.39 7.28L275.39 7.28Q275.44 7.04 275.59 7.04L275.59 7.04L275.59 7.04Q275.72 7.04 275.74 7.08L275.74 7.08L275.74 7.08Q275.77 7.13 275.77 7.27L275.77 7.27L275.77 7.27Q275.77 7.36 275.72 7.91L275.72 7.91L275.72 7.91Q275.66 8.46 275.66 8.74L275.66 8.74L275.66 8.74Q275.66 9.00 275.68 9.24L275.68 9.24L275.68 9.24Q275.70 9.48 275.70 9.59L275.70 9.59L275.70 9.59Q275.70 9.94 275.60 9.94L275.60 9.94L275.60 9.94Q275.39 9.94 275.30 9.60L275.30 9.60L275.30 9.60Q275.10 9.02 274.95 8.92L274.95 8.92L274.95 8.92Q274.65 8.72 273.60 8.72L273.60 8.72L273.60 8.72Q273.18 8.72 272.92 8.72L272.92 8.72L272.92 8.72Q272.66 8.72 272.59 8.71L272.59 8.71L272.59 8.71Q272.51 8.71 272.46 8.71L272.46 8.71L272.46 8.71Q272.41 8.71 272.37 8.71L272.37 8.71L272.37 8.71Q271.80 8.71 271.80 8.97L271.80 8.97L271.80 8.97Q271.80 9.38 271.78 9.99L271.78 9.99L271.78 9.99Q271.77 10.60 271.77 10.99L271.77 10.99L271.77 11.55L271.77 11.55Q271.77 12.56 272.10 12.66L272.10 12.66L272.10 12.66Q272.45 12.77 272.71 12.77L272.71 12.77L272.71 12.77Q273.76 12.77 274.55 12.67L274.55 12.67L274.55 12.67Q275.34 12.57 275.74 12.42L275.74 12.42L275.74 12.42Q276.14 12.28 276.40 12.10L276.40 12.10L276.40 12.10Q276.67 11.93 276.74 11.78L276.74 11.78L276.74 11.78Q276.82 11.63 276.90 11.54L276.90 11.54L276.90 11.54Q276.98 11.44 277.06 11.44L277.06 11.44L277.06 11.44Q277.23 11.44 277.23 11.68L277.23 11.68L277.23 11.68Q277.23 12.28 276.63 12.89L276.63 12.89L276.63 12.89Q276.02 13.51 275.58 13.51L275.58 13.51L275.58 13.51Q274.57 13.51 273.30 13.44L273.30 13.44L273.30 13.44Q272.03 13.37 271.73 13.37L271.73 13.37L271.73 13.37Q271.33 13.37 270.75 13.43L270.75 13.43L270.75 13.43Q270.16 13.50 269.82 13.50L269.82 13.50L269.82 13.50Q269.53 13.50 269.53 13.36L269.53 13.36L269.53 13.36Q269.53 13.23 269.53 13.19L269.53 13.19L269.53 13.19Q269.53 13.15 269.57 13.12L269.57 13.12L269.57 13.12Q269.61 13.09 269.66 13.08L269.66 13.08L269.66 13.08Q269.71 13.08 269.84 13.03L269.84 13.03L269.84 13.03Q269.98 12.99 270.13 12.92L270.13 12.92L270.13 12.92Q270.47 12.75 270.57 12.26L270.57 12.26L270.57 12.26Q270.68 11.77 270.68 10.21L270.68 10.21L270.68 8.47L270.68 8.47Q270.68 8.09 270.70 7.29L270.70 7.29L270.70 7.29Q270.72 6.50 270.72 6.05L270.72 6.05L270.72 6.05Q270.72 5.67 270.69 4.77L270.69 4.77L270.69 4.77Q270.68 4.37 270.34 4.14L270.34 4.14L270.34 4.14Q270.00 3.92 269.56 3.91L269.56 3.91L269.56 3.91Q269.33 3.91 269.33 3.65ZM294.77 13.33L294.77 13.33L294.77 13.33Q294.77 13.13 294.98 13.06L294.98 13.06L294.98 13.06Q295.43 12.89 295.76 12.31L295.76 12.31L295.76 12.31Q296.10 11.73 297.43 8.83L297.43 8.83L297.43 8.83Q298.80 5.87 299.85 3.63L299.85 3.63L299.85 3.63Q299.95 3.42 300.03 3.36L300.03 3.36L300.03 3.36Q300.10 3.30 300.27 3.30L300.27 3.30L300.27 3.30Q300.40 3.30 300.44 3.36L300.44 3.36L300.44 3.36Q300.48 3.42 300.62 3.82L300.62 3.82L300.62 3.82Q300.71 4.06 300.77 4.23L300.77 4.23L300.77 4.23Q300.83 4.40 300.97 4.77L300.97 4.77L300.97 4.77Q301.11 5.15 301.28 5.56L301.28 5.56L301.28 5.56Q301.73 6.66 302.83 9.22L302.83 9.22L302.83 9.22Q303.93 11.77 304.02 11.98L304.02 11.98L304.02 11.98Q304.26 12.46 304.56 12.71L304.56 12.71L304.56 12.71Q304.85 12.95 305.07 12.97L305.07 12.97L305.07 12.97Q305.28 12.99 305.43 13.04L305.43 13.04L305.43 13.04Q305.58 13.09 305.58 13.26L305.58 13.26L305.58 13.26Q305.58 13.47 305.20 13.47L305.20 13.47L305.20 13.47Q305.05 13.47 304.60 13.43L304.60 13.43L304.60 13.43Q304.15 13.38 303.94 13.38L303.94 13.38L303.94 13.38Q303.67 13.38 303.25 13.41L303.25 13.41L303.25 13.41Q302.83 13.44 302.64 13.44L302.64 13.44L302.64 13.44Q302.20 13.44 302.09 13.40L302.09 13.40L302.09 13.40Q301.97 13.37 301.97 13.24L301.97 13.24L301.97 13.24Q301.97 13.15 302.08 13.08L302.08 13.08L302.08 13.08Q302.19 13.02 302.32 13.00L302.32 13.00L302.32 13.00Q302.44 12.98 302.55 12.87L302.55 12.87L302.55 12.87Q302.67 12.77 302.67 12.59L302.67 12.59L302.67 12.59Q302.67 12.28 302.32 11.33L302.32 11.33L302.32 11.33Q301.97 10.37 301.73 9.93L301.73 9.93L301.73 9.93Q301.60 9.69 301.15 9.69L301.15 9.69L301.15 9.69Q301.08 9.69 300.54 9.70L300.54 9.70L300.54 9.70Q299.99 9.72 299.46 9.72L299.46 9.72L298.72 9.72L298.72 9.72Q298.09 9.72 297.93 9.79L297.93 9.79L297.93 9.79Q297.77 9.86 297.64 10.12L297.64 10.12L297.64 10.12Q297.56 10.30 297.36 10.70L297.36 10.70L297.36 10.70Q297.16 11.10 297.09 11.26L297.09 11.26L297.09 11.26Q297.02 11.41 296.92 11.65L296.92 11.65L296.92 11.65Q296.81 11.90 296.78 12.05L296.78 12.05L296.78 12.05Q296.74 12.19 296.74 12.31L296.74 12.31L296.74 12.31Q296.74 12.63 296.91 12.80L296.91 12.80L296.91 12.80Q297.07 12.96 297.26 12.98L297.26 12.98L297.26 12.98Q297.46 13.01 297.62 13.06L297.62 13.06L297.62 13.06Q297.78 13.12 297.78 13.26L297.78 13.26L297.78 13.26Q297.78 13.36 297.74 13.40L297.74 13.40L297.74 13.40Q297.70 13.45 297.54 13.45L297.54 13.45L297.54 13.45Q297.46 13.45 297.06 13.45L297.06 13.45L297.06 13.45Q296.66 13.44 296.38 13.44L296.38 13.44L296.38 13.44Q296.07 13.44 295.69 13.47L295.69 13.47L295.69 13.47Q295.30 13.50 295.18 13.50L295.18 13.50L295.18 13.50Q294.77 13.50 294.77 13.33ZM298.28 8.71L298.28 8.71L298.28 8.71Q298.28 8.89 298.41 8.93L298.41 8.93L298.41 8.93Q298.54 8.97 299.00 8.97L299.00 8.97L299.43 8.97L300.76 8.96L300.76 8.96Q301.31 8.96 301.31 8.74L301.31 8.74L301.31 8.74Q301.31 8.55 300.62 7.01L300.62 7.01L300.62 7.01Q299.94 5.46 299.75 5.46L299.75 5.46L299.75 5.46Q299.63 5.46 298.96 7.01L298.96 7.01L298.96 7.01Q298.28 8.55 298.28 8.71ZM323.12 3.71L323.12 3.71L323.12 3.71Q323.12 3.46 323.50 3.46L323.50 3.46L323.50 3.46Q323.55 3.46 323.68 3.47L323.68 3.47L323.68 3.47Q323.81 3.49 323.88 3.49L323.88 3.49L323.88 3.49Q324.02 3.49 324.40 3.51L324.40 3.51L324.40 3.51Q324.79 3.54 325.09 3.54L325.09 3.54L325.09 3.54Q325.53 3.54 326.02 3.51L326.02 3.51L326.02 3.51Q326.51 3.49 326.56 3.49L326.56 3.49L326.56 3.49Q326.80 3.49 326.80 3.63L326.80 3.63L326.80 3.63Q326.80 3.82 326.63 3.88L326.63 3.88L326.63 3.88Q326.47 3.95 326.26 3.97L326.26 3.97L326.26 3.97Q326.06 3.99 325.87 4.28L325.87 4.28L325.87 4.28Q325.68 4.56 325.65 5.14L325.65 5.14L325.65 5.14Q325.63 5.68 325.58 8.19L325.58 8.19L325.58 8.19Q325.54 10.70 325.54 10.99L325.54 10.99L325.54 11.55L325.54 11.55Q325.54 12.56 325.88 12.66L325.88 12.66L325.88 12.66Q326.23 12.77 326.48 12.77L326.48 12.77L326.48 12.77Q327.53 12.77 328.32 12.67L328.32 12.67L328.32 12.67Q329.11 12.57 329.51 12.42L329.51 12.42L329.51 12.42Q329.91 12.28 330.18 12.10L330.18 12.10L330.18 12.10Q330.44 11.93 330.52 11.78L330.52 11.78L330.52 11.78Q330.60 11.63 330.67 11.54L330.67 11.54L330.67 11.54Q330.75 11.44 330.83 11.44L330.83 11.44L330.83 11.44Q331.00 11.44 331.00 11.68L331.00 11.68L331.00 11.68Q331.00 12.28 330.40 12.89L330.40 12.89L330.40 12.89Q329.80 13.51 329.35 13.51L329.35 13.51L329.35 13.51Q328.34 13.51 327.08 13.44L327.08 13.44L327.08 13.44Q325.81 13.37 325.50 13.37L325.50 13.37L325.50 13.37Q325.11 13.37 324.60 13.43L324.60 13.43L324.60 13.43Q324.09 13.48 323.75 13.48L323.75 13.48L323.75 13.48Q323.34 13.48 323.34 13.31L323.34 13.31L323.34 13.31Q323.34 13.22 323.42 13.15L323.42 13.15L323.42 13.15Q323.50 13.09 323.57 13.09L323.57 13.09L323.57 13.09Q323.78 13.09 323.97 12.95L323.97 12.95L323.97 12.95Q324.23 12.75 324.34 12.23L324.34 12.23L324.34 12.23Q324.45 11.70 324.45 10.21L324.45 10.21L324.45 8.47L324.45 8.47Q324.45 8.09 324.47 7.29L324.47 7.29L324.47 7.29Q324.49 6.50 324.49 6.05L324.49 6.05L324.49 6.05Q324.49 5.67 324.46 4.77L324.46 4.77L324.46 4.77Q324.45 4.37 324.11 4.14L324.11 4.14L324.11 4.14Q323.78 3.92 323.33 3.91L323.33 3.91L323.33 3.91Q323.19 3.91 323.16 3.86L323.16 3.86L323.16 3.86Q323.12 3.81 323.12 3.71ZM338.56 3.71L338.56 3.71L338.56 3.71Q338.56 3.50 338.95 3.50L338.95 3.50L338.95 3.50Q339.09 3.50 339.60 3.53L339.60 3.53L339.60 3.53Q340.10 3.56 340.54 3.56L340.54 3.56L340.54 3.56Q340.80 3.56 341.05 3.54L341.05 3.54L341.05 3.54Q341.29 3.53 341.77 3.53L341.77 3.53L341.77 3.53Q342.15 3.53 342.15 3.72L342.15 3.72L342.15 3.72Q342.15 3.84 341.50 4.10L341.50 4.10L341.50 4.10Q341.05 4.28 341.05 5.71L341.05 5.71L341.05 5.71Q341.05 7.60 341.03 9.05L341.03 9.05L341.03 9.05Q341.01 10.50 341.01 10.89L341.01 10.89L341.01 10.89Q341.01 12.07 341.36 12.59L341.36 12.59L341.36 12.59Q341.67 13.02 342.03 13.02L342.03 13.02L342.03 13.02Q342.06 13.02 342.17 13.03L342.17 13.03L342.17 13.03Q342.29 13.03 342.31 13.03L342.31 13.03L342.31 13.03Q342.41 13.03 342.51 13.08L342.51 13.08L342.51 13.08Q342.61 13.13 342.61 13.19L342.61 13.19L342.61 13.19Q342.61 13.34 342.53 13.39L342.53 13.39L342.53 13.39Q342.45 13.44 342.26 13.44L342.26 13.44L342.26 13.44Q341.84 13.44 341.48 13.41L341.48 13.41L341.48 13.41Q341.12 13.38 340.93 13.38L340.93 13.38L340.93 13.38Q340.54 13.38 340.07 13.42L340.07 13.42L340.07 13.42Q339.61 13.45 339.39 13.45L339.39 13.45L339.39 13.45Q338.76 13.45 338.76 13.24L338.76 13.24L338.76 13.24Q338.76 13.12 338.89 13.07L338.89 13.07L338.89 13.07Q339.02 13.02 339.19 13.00L339.19 13.00L339.19 13.00Q339.36 12.98 339.54 12.82L339.54 12.82L339.54 12.82Q339.72 12.66 339.79 12.35L339.79 12.35L339.79 12.35Q339.82 12.25 339.89 10.76L339.89 10.76L339.89 10.76Q339.95 9.27 339.95 8.61L339.95 8.61L339.95 7.81L339.95 7.81Q339.95 7.63 339.96 7.12L339.96 7.12L339.96 7.12Q339.96 6.61 339.96 6.30L339.96 6.30L339.96 5.66L339.96 5.66Q339.96 5.04 339.91 4.63L339.91 4.63L339.91 4.63Q339.86 4.30 339.54 4.12L339.54 4.12L339.54 4.12Q339.21 3.93 338.86 3.92L338.86 3.92L338.86 3.92Q338.56 3.91 338.56 3.71ZM350.15 3.68L350.15 3.68L350.15 3.68Q350.15 3.64 350.18 3.60L350.18 3.60L350.18 3.60Q350.20 3.56 350.29 3.50L350.29 3.50L350.29 3.50Q350.38 3.44 350.52 3.44L350.52 3.44L350.90 3.44L350.90 3.44Q351.23 3.44 351.98 3.49L351.98 3.49L351.98 3.49Q352.73 3.53 353.93 3.53L353.93 3.53L353.93 3.53Q354.93 3.53 355.70 3.49L355.70 3.49L355.70 3.49Q356.47 3.46 357.11 3.46L357.11 3.46L357.11 3.46Q357.35 3.46 357.35 3.79L357.35 3.79L357.35 3.79Q357.35 3.92 357.32 4.11L357.32 4.11L357.32 4.11Q357.29 4.30 357.24 4.61L357.24 4.61L357.24 4.61Q357.18 4.93 357.15 5.22L357.15 5.22L357.15 5.22Q357.13 5.50 356.94 5.50L356.94 5.50L356.94 5.50Q356.75 5.50 356.75 5.22L356.75 5.22L356.75 5.22Q356.75 4.30 356.10 4.26L356.10 4.26L356.10 4.26Q353.99 4.09 353.58 4.09L353.58 4.09L353.58 4.09Q352.95 4.09 352.81 4.24L352.81 4.24L352.81 4.24Q352.66 4.40 352.65 4.87L352.65 4.87L352.65 4.87Q352.65 4.94 352.65 4.98L352.65 4.98L352.65 4.98Q352.60 5.74 352.60 7.32L352.60 7.32L352.60 7.32Q352.60 8.01 352.86 8.02L352.86 8.02L352.86 8.02Q352.93 8.02 353.05 8.03L353.05 8.03L353.05 8.03Q353.16 8.04 353.21 8.04L353.21 8.04L353.21 8.04Q353.30 8.04 353.50 8.03L353.50 8.03L353.50 8.03Q353.70 8.02 353.81 8.02L353.81 8.02L354.24 8.02L354.24 8.02Q355.08 8.02 355.36 7.97L355.36 7.97L355.36 7.97Q355.63 7.92 355.85 7.77L355.85 7.77L355.85 7.77Q355.98 7.69 356.05 7.57L356.05 7.57L356.05 7.57Q356.12 7.46 356.15 7.31L356.15 7.31L356.15 7.31Q356.17 7.15 356.22 7.08L356.22 7.08L356.22 7.08Q356.26 7.01 356.38 7.01L356.38 7.01L356.38 7.01Q356.51 7.01 356.54 7.06L356.54 7.06L356.54 7.06Q356.57 7.10 356.57 7.24L356.57 7.24L356.57 7.24Q356.57 7.34 356.50 7.73L356.50 7.73L356.50 7.73Q356.44 8.12 356.44 8.40L356.44 8.40L356.44 8.40Q356.44 8.67 356.49 9.05L356.49 9.05L356.49 9.05Q356.54 9.44 356.54 9.55L356.54 9.55L356.54 9.55Q356.54 9.77 356.49 9.83L356.49 9.83L356.49 9.83Q356.44 9.90 356.34 9.90L356.34 9.90L356.34 9.90Q356.10 9.90 356.05 9.55L356.05 9.55L356.05 9.55Q356.05 9.52 356.03 9.42L356.03 9.42L356.03 9.42Q356.02 9.32 356.01 9.28L356.01 9.28L356.01 9.28Q356.01 9.24 355.98 9.16L355.98 9.16L355.98 9.16Q355.95 9.09 355.92 9.04L355.92 9.04L355.92 9.04Q355.89 9.00 355.85 8.95L355.85 8.95L355.85 8.95Q355.81 8.90 355.74 8.88L355.74 8.88L355.74 8.88Q355.54 8.79 355.04 8.74L355.04 8.74L355.04 8.74Q354.54 8.68 354.38 8.68L354.38 8.68L353.16 8.68L353.16 8.68Q352.59 8.68 352.59 8.95L352.59 8.95L352.59 8.95Q352.59 9.35 352.58 9.96L352.58 9.96L352.58 9.96Q352.56 10.57 352.56 10.96L352.56 10.96L352.56 10.96Q352.56 11.06 352.56 11.25L352.56 11.25L352.56 11.25Q352.55 11.44 352.55 11.52L352.55 11.52L352.55 11.52Q352.55 11.80 352.60 12.08L352.60 12.08L352.60 12.08Q352.66 12.36 352.93 12.67L352.93 12.67L352.93 12.67Q353.21 12.98 353.67 12.98L353.67 12.98L353.67 12.98Q354.09 12.98 354.09 13.23L354.09 13.23L354.09 13.23Q354.09 13.27 354.06 13.33L354.06 13.33L354.06 13.33Q354.03 13.38 353.93 13.44L353.93 13.44L353.93 13.44Q353.82 13.50 353.65 13.50L353.65 13.50L353.65 13.50Q353.43 13.50 352.95 13.44L352.95 13.44L352.95 13.44Q352.46 13.38 352.30 13.38L352.30 13.38L352.30 13.38Q351.90 13.38 351.42 13.43L351.42 13.43L351.42 13.43Q350.94 13.47 350.60 13.47L350.60 13.47L350.60 13.47Q350.32 13.47 350.32 13.31L350.32 13.31L350.32 13.31Q350.32 13.13 350.39 13.09L350.39 13.09L350.39 13.09Q350.45 13.05 350.92 12.88L350.92 12.88L350.92 12.88Q351.29 12.75 351.37 12.13L351.37 12.13L351.37 12.13Q351.46 11.51 351.47 9.60L351.47 9.60L351.47 9.60Q351.47 8.86 351.47 8.44L351.47 8.44L351.47 8.44Q351.47 8.06 351.49 7.26L351.49 7.26L351.49 7.26Q351.51 6.45 351.51 6.01L351.51 6.01L351.51 5.19L351.51 5.19Q351.51 4.27 350.85 3.96L350.85 3.96L350.85 3.96Q350.76 3.92 350.62 3.90L350.62 3.90L350.62 3.90Q350.48 3.88 350.39 3.88L350.39 3.88L350.39 3.88Q350.29 3.88 350.22 3.83L350.22 3.83L350.22 3.83Q350.15 3.78 350.15 3.68ZM364.91 3.65L364.91 3.65L364.91 3.65Q364.91 3.46 365.30 3.46L365.30 3.46L365.30 3.46Q365.36 3.46 365.48 3.47L365.48 3.47L365.48 3.47Q365.61 3.49 365.68 3.49L365.68 3.49L365.68 3.49Q365.72 3.49 367.00 3.52L367.00 3.52L367.00 3.52Q368.27 3.56 369.10 3.56L369.10 3.56L369.10 3.56Q369.39 3.56 370.55 3.53L370.55 3.53L370.55 3.53Q371.70 3.50 371.90 3.50L371.90 3.50L371.90 3.50Q372.16 3.50 372.16 3.82L372.16 3.82L372.16 3.82Q372.16 3.91 372.08 4.38L372.08 4.38L372.08 4.38Q371.99 4.84 371.99 5.25L371.99 5.25L371.99 5.25Q371.99 5.38 371.92 5.47L371.92 5.47L371.92 5.47Q371.85 5.56 371.77 5.56L371.77 5.56L371.77 5.56Q371.56 5.56 371.56 5.26L371.56 5.26L371.56 5.26Q371.56 4.89 371.32 4.58L371.32 4.58L371.32 4.58Q371.08 4.27 370.73 4.26L370.73 4.26L370.73 4.26Q369.47 4.16 368.80 4.16L368.80 4.16L368.44 4.16L368.44 4.16Q367.71 4.16 367.59 4.26L367.59 4.26L367.59 4.26Q367.47 4.37 367.44 5.01L367.44 5.01L367.44 5.01Q367.39 6.02 367.39 7.35L367.39 7.35L367.39 7.35Q367.39 8.05 367.65 8.06L367.65 8.06L368.00 8.06L368.59 8.06L369.03 8.06L369.03 8.06Q369.87 8.06 370.15 8.01L370.15 8.01L370.15 8.01Q370.43 7.95 370.65 7.80L370.65 7.80L370.65 7.80Q370.92 7.62 370.97 7.28L370.97 7.28L370.97 7.28Q371.01 7.04 371.17 7.04L371.17 7.04L371.17 7.04Q371.29 7.04 371.32 7.08L371.32 7.08L371.32 7.08Q371.35 7.13 371.35 7.27L371.35 7.27L371.35 7.27Q371.35 7.36 371.29 7.91L371.29 7.91L371.29 7.91Q371.24 8.46 371.24 8.74L371.24 8.74L371.24 8.74Q371.24 9.00 371.26 9.24L371.26 9.24L371.26 9.24Q371.28 9.48 371.28 9.59L371.28 9.59L371.28 9.59Q371.28 9.94 371.18 9.94L371.18 9.94L371.18 9.94Q370.97 9.94 370.87 9.60L370.87 9.60L370.87 9.60Q370.68 9.02 370.52 8.92L370.52 8.92L370.52 8.92Q370.23 8.72 369.18 8.72L369.18 8.72L369.18 8.72Q368.76 8.72 368.50 8.72L368.50 8.72L368.50 8.72Q368.24 8.72 368.17 8.71L368.17 8.71L368.17 8.71Q368.09 8.71 368.04 8.71L368.04 8.71L368.04 8.71Q367.99 8.71 367.95 8.71L367.95 8.71L367.95 8.71Q367.37 8.71 367.37 8.97L367.37 8.97L367.37 8.97Q367.37 9.38 367.36 9.99L367.36 9.99L367.36 9.99Q367.35 10.60 367.35 10.99L367.35 10.99L367.35 11.55L367.35 11.55Q367.35 12.56 367.68 12.66L367.68 12.66L367.68 12.66Q368.03 12.77 368.28 12.77L368.28 12.77L368.28 12.77Q369.33 12.77 370.13 12.67L370.13 12.67L370.13 12.67Q370.92 12.57 371.31 12.42L371.31 12.42L371.31 12.42Q371.71 12.28 371.98 12.10L371.98 12.10L371.98 12.10Q372.25 11.93 372.32 11.78L372.32 11.78L372.32 11.78Q372.40 11.63 372.48 11.54L372.48 11.54L372.48 11.54Q372.55 11.44 372.64 11.44L372.64 11.44L372.64 11.44Q372.81 11.44 372.81 11.68L372.81 11.68L372.81 11.68Q372.81 12.28 372.20 12.89L372.20 12.89L372.20 12.89Q371.60 13.51 371.15 13.51L371.15 13.51L371.15 13.51Q370.15 13.51 368.88 13.44L368.88 13.44L368.88 13.44Q367.61 13.37 367.30 13.37L367.30 13.37L367.30 13.37Q366.91 13.37 366.32 13.43L366.32 13.43L366.32 13.43Q365.74 13.50 365.40 13.50L365.40 13.50L365.40 13.50Q365.11 13.50 365.11 13.36L365.11 13.36L365.11 13.36Q365.11 13.23 365.11 13.19L365.11 13.19L365.11 13.19Q365.11 13.15 365.15 13.12L365.15 13.12L365.15 13.12Q365.19 13.09 365.24 13.08L365.24 13.08L365.24 13.08Q365.29 13.08 365.42 13.03L365.42 13.03L365.42 13.03Q365.55 12.99 365.71 12.92L365.71 12.92L365.71 12.92Q366.04 12.75 366.15 12.26L366.15 12.26L366.15 12.26Q366.25 11.77 366.25 10.21L366.25 10.21L366.25 8.47L366.25 8.47Q366.25 8.09 366.27 7.29L366.27 7.29L366.27 7.29Q366.30 6.50 366.30 6.05L366.30 6.05L366.30 6.05Q366.30 5.67 366.27 4.77L366.27 4.77L366.27 4.77Q366.25 4.37 365.92 4.14L365.92 4.14L365.92 4.14Q365.58 3.92 365.13 3.91L365.13 3.91L365.13 3.91Q364.91 3.91 364.91 3.65ZM390.35 5.32L390.35 5.32L390.35 5.32Q390.35 4.76 390.49 3.88L390.49 3.88L390.49 3.88Q390.49 3.85 390.50 3.78L390.50 3.78L390.50 3.78Q390.50 3.71 390.51 3.69L390.51 3.69L390.51 3.69Q390.52 3.67 390.52 3.62L390.52 3.62L390.52 3.62Q390.53 3.57 390.54 3.55L390.54 3.55L390.54 3.55Q390.56 3.53 390.58 3.49L390.58 3.49L390.58 3.49Q390.60 3.46 390.63 3.44L390.63 3.44L390.63 3.44Q390.66 3.43 390.70 3.42L390.70 3.42L390.70 3.42Q390.74 3.40 390.80 3.39L390.80 3.39L390.80 3.39Q390.85 3.39 390.92 3.39L390.92 3.39L390.92 3.39Q391.15 3.39 392.11 3.44L392.11 3.44L392.11 3.44Q393.06 3.50 394.87 3.50L394.87 3.50L394.87 3.50Q397.95 3.50 399.18 3.43L399.18 3.43L399.18 3.43Q399.20 3.43 399.23 3.42L399.23 3.42L399.23 3.42Q399.27 3.42 399.28 3.42L399.28 3.42L399.28 3.42Q399.43 3.42 399.49 3.50L399.49 3.50L399.49 3.50Q399.55 3.58 399.55 3.65L399.55 3.65L399.55 3.65Q399.55 3.75 399.59 4.24L399.59 4.24L399.59 4.24Q399.63 4.73 399.63 4.79L399.63 4.79L399.63 4.79Q399.63 5.14 399.59 5.23L399.59 5.23L399.59 5.23Q399.55 5.32 399.41 5.32L399.41 5.32L399.41 5.32Q399.29 5.32 399.25 5.15L399.25 5.15L399.25 5.15Q399.14 4.75 399.06 4.60L399.06 4.60L399.06 4.60Q398.97 4.45 398.69 4.34L398.69 4.34L398.69 4.34Q398.41 4.23 397.84 4.23L397.84 4.23L396.02 4.23L396.02 4.23Q395.68 4.23 395.61 4.36L395.61 4.36L395.61 4.36Q395.53 4.49 395.53 5.12L395.53 5.12L395.53 5.81L395.53 5.81Q395.53 7.69 395.51 9.11L395.51 9.11L395.51 9.11Q395.49 10.54 395.49 10.93L395.49 10.93L395.49 10.93Q395.49 11.13 395.48 11.43L395.48 11.43L395.48 11.43Q395.47 11.73 395.47 11.84L395.47 11.84L395.47 11.84Q395.47 12.45 395.67 12.64L395.67 12.64L395.67 12.64Q395.85 12.81 396.07 12.90L396.07 12.90L396.07 12.90Q396.30 12.99 396.46 13.01L396.46 13.01L396.46 13.01Q396.62 13.02 396.73 13.08L396.73 13.08L396.73 13.08Q396.84 13.13 396.84 13.26L396.84 13.26L396.84 13.26Q396.84 13.41 396.77 13.45L396.77 13.45L396.77 13.45Q396.70 13.50 396.51 13.50L396.51 13.50L396.51 13.50Q396.34 13.50 395.77 13.44L395.77 13.44L395.77 13.44Q395.19 13.38 394.95 13.38L394.95 13.38L394.95 13.38Q394.79 13.38 394.28 13.43L394.28 13.43L394.28 13.43Q393.76 13.48 393.53 13.48L393.53 13.48L393.53 13.48Q393.01 13.48 393.01 13.26L393.01 13.26L393.01 13.26Q393.01 13.12 393.09 13.07L393.09 13.07L393.09 13.07Q393.18 13.02 393.42 12.98L393.42 12.98L393.42 12.98Q393.67 12.95 393.74 12.94L393.74 12.94L393.74 12.94Q394.21 12.82 394.27 12.38L394.27 12.38L394.27 12.38Q394.41 11.14 394.41 7.08L394.41 7.08L394.39 4.58L394.39 4.58Q394.39 4.31 394.24 4.25L394.24 4.25L394.24 4.25Q394.09 4.19 393.33 4.19L393.33 4.19L393.33 4.19Q392.35 4.19 391.85 4.24L391.85 4.24L391.85 4.24Q391.36 4.30 391.27 4.35L391.27 4.35L391.27 4.35Q391.19 4.40 391.08 4.54L391.08 4.54L391.08 4.54Q390.95 4.70 390.87 4.91L390.87 4.91L390.87 4.91Q390.80 5.11 390.78 5.24L390.78 5.24L390.78 5.24Q390.75 5.38 390.69 5.47L390.69 5.47L390.69 5.47Q390.63 5.56 390.50 5.56L390.50 5.56L390.50 5.56Q390.35 5.56 390.35 5.32ZM407.53 8.69L407.53 8.69L407.53 8.69Q407.53 6.34 408.94 4.84L408.94 4.84L408.94 4.84Q410.35 3.33 412.94 3.33L412.94 3.33L412.94 3.33Q414.15 3.33 415.11 3.68L415.11 3.68L415.11 3.68Q416.08 4.03 416.64 4.54L416.64 4.54L416.64 4.54Q417.20 5.05 417.58 5.71L417.58 5.71L417.58 5.71Q417.96 6.37 418.10 6.92L418.10 6.92L418.10 6.92Q418.24 7.48 418.24 7.95L418.24 7.95L418.24 7.95Q418.24 9.86 417.49 11.16L417.49 11.16L417.49 11.16Q416.75 12.47 415.54 13.07L415.54 13.07L415.54 13.07Q414.33 13.66 412.75 13.66L412.75 13.66L412.75 13.66Q411.08 13.66 409.87 12.94L409.87 12.94L409.87 12.94Q408.66 12.21 408.09 11.10L408.09 11.10L408.09 11.10Q407.53 10.00 407.53 8.69ZM408.76 7.98L408.76 7.98L408.76 7.98Q408.76 8.54 408.91 9.19L408.91 9.19L408.91 9.19Q409.07 9.84 409.42 10.54L409.42 10.54L409.42 10.54Q409.77 11.23 410.26 11.78L410.26 11.78L410.26 11.78Q410.76 12.33 411.52 12.69L411.52 12.69L411.52 12.69Q412.29 13.05 413.20 13.05L413.20 13.05L413.20 13.05Q413.67 13.05 414.20 12.90L414.20 12.90L414.20 12.90Q414.72 12.75 415.24 12.45L415.24 12.45L415.24 12.45Q415.76 12.14 416.16 11.70L416.16 11.70L416.16 11.70Q416.57 11.26 416.83 10.62L416.83 10.62L416.83 10.62Q417.09 9.98 417.09 9.24L417.09 9.24L417.09 9.24Q417.09 6.71 415.76 5.30L415.76 5.30L415.76 5.30Q414.43 3.89 412.47 3.89L412.47 3.89L412.47 3.89Q410.93 3.89 409.84 4.93L409.84 4.93L409.84 4.93Q408.76 5.96 408.76 7.98ZM425.92 3.71L425.92 3.71L425.92 3.71Q425.92 3.50 426.17 3.50L426.17 3.50L426.17 3.50Q426.26 3.50 426.56 3.53L426.56 3.53L426.56 3.53Q426.86 3.56 426.92 3.56L426.92 3.56L426.92 3.56Q427.13 3.56 427.49 3.54L427.49 3.54L427.49 3.54Q427.85 3.53 427.97 3.53L427.97 3.53L427.97 3.53Q428.23 3.53 428.30 3.72L428.30 3.72L428.30 3.72Q428.47 4.09 428.90 5.03L428.90 5.03L428.90 5.03Q429.34 5.98 429.60 6.54L429.60 6.54L429.60 6.54Q429.86 7.10 430.26 7.97L430.26 7.97L430.26 7.97Q430.67 8.83 430.92 9.37L430.92 9.37L430.92 9.37Q431.17 9.91 431.45 10.46L431.45 10.46L431.45 10.46Q431.72 11.00 431.87 11.26L431.87 11.26L431.87 11.26Q432.01 11.52 432.05 11.52L432.05 11.52L432.05 11.52Q432.10 11.52 432.15 11.47L432.15 11.47L432.15 11.47Q432.19 11.42 432.24 11.34L432.24 11.34L432.24 11.34Q432.29 11.26 432.33 11.17L432.33 11.17L432.33 11.17Q432.36 11.09 432.43 10.96L432.43 10.96L432.43 10.96Q432.49 10.82 432.52 10.75L432.52 10.75L434.32 7.03L434.32 7.03Q434.63 6.40 434.87 5.89L434.87 5.89L434.87 5.89Q435.11 5.39 435.25 5.08L435.25 5.08L435.25 5.08Q435.39 4.77 435.48 4.55L435.48 4.55L435.48 4.55Q435.58 4.33 435.63 4.21L435.63 4.21L435.63 4.21Q435.68 4.10 435.70 4.04L435.70 4.04L435.70 4.04Q435.72 3.98 435.74 3.94L435.74 3.94L435.74 3.94Q435.75 3.91 435.76 3.88L435.76 3.88L435.76 3.88Q435.78 3.85 435.81 3.75L435.81 3.75L435.81 3.75Q435.85 3.65 435.88 3.62L435.88 3.62L435.88 3.62Q435.92 3.58 436.02 3.54L436.02 3.54L436.02 3.54Q436.13 3.50 436.30 3.50L436.30 3.50L436.30 3.50Q436.56 3.50 436.79 3.51L436.79 3.51L436.79 3.51Q437.02 3.53 437.50 3.53L437.50 3.53L437.50 3.53Q437.74 3.53 437.74 3.71L437.74 3.71L437.74 3.71Q437.74 3.85 437.65 3.91L437.65 3.91L437.65 3.91Q437.56 3.98 437.28 4.02L437.28 4.02L437.28 4.02Q436.93 4.06 436.79 4.37L436.79 4.37L436.79 4.37Q436.65 4.68 436.65 5.54L436.65 5.54L436.65 5.54Q436.65 7.43 436.73 8.97L436.73 8.97L436.73 8.97Q436.81 10.50 436.81 10.89L436.81 10.89L436.81 10.89Q436.81 12.29 437.04 12.68L437.04 12.68L437.04 12.68Q437.26 13.06 437.98 13.06L437.98 13.06L437.98 13.06Q438.07 13.06 438.15 13.13L438.15 13.13L438.15 13.13Q438.23 13.20 438.23 13.26L438.23 13.26L438.23 13.26Q438.23 13.34 438.21 13.38L438.21 13.38L438.21 13.38Q438.20 13.43 438.16 13.45L438.16 13.45L438.16 13.45Q438.12 13.48 438.07 13.48L438.07 13.48L438.07 13.48Q438.03 13.48 437.92 13.48L437.92 13.48L437.92 13.48Q437.50 13.48 437.09 13.45L437.09 13.45L437.09 13.45Q436.69 13.43 436.49 13.43L436.49 13.43L436.49 13.43Q436.10 13.43 435.68 13.46L435.68 13.46L435.68 13.46Q435.26 13.50 435.04 13.50L435.04 13.50L435.04 13.50Q434.78 13.50 434.78 13.30L434.78 13.30L434.78 13.30Q434.78 13.17 434.90 13.12L434.90 13.12L434.90 13.12Q435.01 13.06 435.16 13.05L435.16 13.05L435.16 13.05Q435.30 13.03 435.46 12.87L435.46 12.87L435.46 12.87Q435.62 12.71 435.69 12.39L435.69 12.39L435.69 12.39Q435.75 12.11 435.75 11.49L435.75 11.49L435.75 11.49Q435.75 11.05 435.73 10.42L435.73 10.42L435.73 10.42Q435.71 9.79 435.68 9.19L435.68 9.19L435.68 9.19Q435.65 8.60 435.62 8.07L435.62 8.07L435.62 8.07Q435.60 7.55 435.58 7.21L435.58 7.21L435.55 6.87L435.55 6.87Q435.55 6.27 435.43 6.27L435.43 6.27L435.43 6.27Q435.41 6.27 435.39 6.29L435.39 6.29L435.39 6.29Q435.36 6.30 435.34 6.33L435.34 6.33L435.34 6.33Q435.32 6.36 435.29 6.38L435.29 6.38L435.29 6.38Q435.26 6.41 435.23 6.47L435.23 6.47L435.23 6.47Q435.20 6.54 435.18 6.58L435.18 6.58L435.18 6.58Q435.15 6.62 435.11 6.70L435.11 6.70L435.11 6.70Q435.06 6.78 435.04 6.83L435.04 6.83L435.04 6.83Q435.01 6.89 434.96 6.99L434.96 6.99L434.96 6.99Q434.91 7.08 434.88 7.15L434.88 7.15L432.94 11.09L432.94 11.09Q432.60 11.77 432.22 12.56L432.22 12.56L432.22 12.56Q431.97 13.09 431.91 13.18L431.91 13.18L431.91 13.18Q431.86 13.27 431.77 13.27L431.77 13.27L431.77 13.27Q431.65 13.27 431.56 13.15L431.56 13.15L431.56 13.15Q431.48 13.03 431.31 12.63L431.31 12.63L431.31 12.63Q431.14 12.22 431.02 11.96L431.02 11.96L431.02 11.96Q428.46 6.75 428.39 6.65L428.39 6.65L428.39 6.65Q428.34 6.59 428.30 6.59L428.30 6.59L428.30 6.59Q428.19 6.59 428.19 7.15L428.19 7.15L428.19 7.15Q428.18 8.25 428.12 9.31L428.12 9.31L428.12 9.31Q428.06 10.37 428.06 10.85L428.06 10.85L428.06 11.48L428.06 11.48Q428.06 11.84 428.09 12.04L428.09 12.04L428.09 12.04Q428.11 12.24 428.20 12.49L428.20 12.49L428.20 12.49Q428.29 12.75 428.53 12.89L428.53 12.89L428.53 12.89Q428.76 13.03 429.14 13.08L429.14 13.08L429.14 13.08Q429.21 13.08 429.28 13.13L429.28 13.13L429.28 13.13Q429.34 13.17 429.34 13.23L429.34 13.23L429.34 13.23Q429.34 13.38 429.30 13.43L429.30 13.43L429.30 13.43Q429.25 13.48 429.13 13.48L429.13 13.48L429.13 13.48Q428.85 13.48 428.29 13.45L428.29 13.45L428.29 13.45Q427.73 13.43 427.67 13.43L427.67 13.43L427.67 13.43Q427.64 13.43 427.27 13.45L427.27 13.45L427.27 13.45Q426.89 13.47 426.52 13.47L426.52 13.47L426.52 13.47Q426.41 13.47 426.36 13.45L426.36 13.45L426.36 13.45Q426.31 13.44 426.27 13.39L426.27 13.39L426.27 13.39Q426.23 13.34 426.23 13.24L426.23 13.24L426.23 13.24Q426.23 13.13 426.36 13.09L426.36 13.09L426.36 13.09Q426.48 13.05 426.64 13.04L426.64 13.04L426.64 13.04Q426.80 13.03 427.00 12.82L427.00 12.82L427.00 12.82Q427.20 12.60 427.29 12.18L427.29 12.18L427.29 12.18Q427.36 11.87 427.46 9.74L427.46 9.74L427.46 9.74Q427.56 7.62 427.56 6.59L427.56 6.59L427.56 6.59Q427.56 5.19 427.29 4.66L427.29 4.66L427.29 4.66Q427.01 4.13 426.10 3.92L426.10 3.92L426.10 3.92Q425.92 3.88 425.92 3.71ZM445.91 8.69L445.91 8.69L445.91 8.69Q445.91 6.34 447.33 4.84L447.33 4.84L447.33 4.84Q448.74 3.33 451.33 3.33L451.33 3.33L451.33 3.33Q452.54 3.33 453.50 3.68L453.50 3.68L453.50 3.68Q454.47 4.03 455.03 4.54L455.03 4.54L455.03 4.54Q455.59 5.05 455.97 5.71L455.97 5.71L455.97 5.71Q456.34 6.37 456.48 6.92L456.48 6.92L456.48 6.92Q456.62 7.48 456.62 7.95L456.62 7.95L456.62 7.95Q456.62 9.86 455.88 11.16L455.88 11.16L455.88 11.16Q455.14 12.47 453.93 13.07L453.93 13.07L453.93 13.07Q452.72 13.66 451.14 13.66L451.14 13.66L451.14 13.66Q449.47 13.66 448.26 12.94L448.26 12.94L448.26 12.94Q447.05 12.21 446.48 11.10L446.48 11.10L446.48 11.10Q445.91 10.00 445.91 8.69ZM447.15 7.98L447.15 7.98L447.15 7.98Q447.15 8.54 447.30 9.19L447.30 9.19L447.30 9.19Q447.45 9.84 447.80 10.54L447.80 10.54L447.80 10.54Q448.15 11.23 448.65 11.78L448.65 11.78L448.65 11.78Q449.15 12.33 449.91 12.69L449.91 12.69L449.91 12.69Q450.67 13.05 451.58 13.05L451.58 13.05L451.58 13.05Q452.06 13.05 452.59 12.90L452.59 12.90L452.59 12.90Q453.11 12.75 453.63 12.45L453.63 12.45L453.63 12.45Q454.15 12.14 454.55 11.70L454.55 11.70L454.55 11.70Q454.96 11.26 455.22 10.62L455.22 10.62L455.22 10.62Q455.48 9.98 455.48 9.24L455.48 9.24L455.48 9.24Q455.48 6.71 454.15 5.30L454.15 5.30L454.15 5.30Q452.82 3.89 450.86 3.89L450.86 3.89L450.86 3.89Q449.32 3.89 448.23 4.93L448.23 4.93L448.23 4.93Q447.15 5.96 447.15 7.98ZM464.52 3.70L464.52 3.70L464.52 3.70Q464.52 3.47 464.93 3.47L464.93 3.47L467.25 3.47L467.25 3.47Q467.57 3.47 467.99 3.45L467.99 3.45L467.99 3.45Q468.41 3.43 468.65 3.43L468.65 3.43L468.65 3.43Q469.91 3.43 470.81 4.07L470.81 4.07L470.81 4.07Q471.70 4.70 471.70 5.78L471.70 5.78L471.70 5.78Q471.70 6.50 471.43 7.03L471.43 7.03L471.43 7.03Q471.16 7.57 470.83 7.81L470.83 7.81L470.83 7.81Q470.50 8.05 470.23 8.22L470.23 8.22L470.23 8.22Q469.95 8.40 469.95 8.46L469.95 8.46L469.95 8.46Q469.95 8.62 471.13 10.27L471.13 10.27L471.13 10.27Q472.30 11.91 472.74 12.38L472.74 12.38L472.74 12.38Q473.27 13.03 474.03 13.03L474.03 13.03L474.03 13.03Q474.22 13.03 474.22 13.20L474.22 13.20L474.22 13.20Q474.22 13.41 474.05 13.48L474.05 13.48L474.05 13.48Q473.89 13.55 473.19 13.55L473.19 13.55L473.19 13.55Q472.53 13.55 471.98 13.23L471.98 13.23L471.98 13.23Q471.28 12.82 469.62 10.09L469.62 10.09L469.62 10.09Q469.52 9.94 469.48 9.87L469.48 9.87L469.48 9.87Q468.80 8.78 468.44 8.78L468.44 8.78L468.15 8.78L467.29 8.78L467.29 8.78Q467.12 8.78 467.09 8.92L467.09 8.92L467.09 8.92Q467.05 9.06 467.05 9.77L467.05 9.77L467.05 9.77Q467.05 10.44 467.05 10.88L467.05 10.88L467.05 10.88Q467.05 11.31 467.06 11.43L467.06 11.43L467.06 11.43Q467.07 11.55 467.07 11.63L467.07 11.63L467.07 11.63Q467.07 11.70 467.07 11.75L467.07 11.75L467.07 11.75Q467.07 12.32 467.33 12.63L467.33 12.63L467.33 12.63Q467.60 12.95 467.93 13.00L467.93 13.00L467.93 13.00Q468.26 13.05 468.52 13.11L468.52 13.11L468.52 13.11Q468.79 13.17 468.79 13.31L468.79 13.31L468.79 13.31Q468.79 13.54 468.54 13.54L468.54 13.54L468.54 13.54Q468.52 13.54 467.57 13.49L467.57 13.49L467.57 13.49Q466.62 13.44 466.54 13.44L466.54 13.44L466.54 13.44Q466.13 13.44 465.57 13.47L465.57 13.47L465.57 13.47Q465.01 13.50 465.00 13.50L465.00 13.50L465.00 13.50Q464.70 13.50 464.70 13.27L464.70 13.27L464.70 13.27Q464.70 13.12 464.88 13.05L464.88 13.05L464.88 13.05Q465.07 12.99 465.29 12.96L465.29 12.96L465.29 12.96Q465.51 12.94 465.70 12.66L465.70 12.66L465.70 12.66Q465.88 12.38 465.88 11.86L465.88 11.86L465.88 11.86Q465.88 11.49 465.89 9.90L465.89 9.90L465.89 9.90Q465.89 8.30 465.89 7.45L465.89 7.45L465.89 7.45Q465.89 6.58 465.89 5.86L465.89 5.86L465.89 5.86Q465.88 5.14 465.88 5.08L465.88 5.08L465.88 5.08Q465.88 4.56 465.67 4.29L465.67 4.29L465.67 4.29Q465.46 4.02 465.20 3.98L465.20 3.98L465.20 3.98Q464.94 3.95 464.73 3.89L464.73 3.89L464.73 3.89Q464.52 3.84 464.52 3.70ZM467.05 5.54L467.05 5.94L467.05 5.94Q467.05 7.38 467.07 7.72L467.07 7.72L467.07 7.72Q467.08 8.06 467.17 8.12L467.17 8.12L467.17 8.12Q467.38 8.25 467.77 8.25L467.77 8.25L467.91 8.25L468.31 8.25L468.31 8.25Q469.50 8.25 470.02 7.70L470.02 7.70L470.02 7.70Q470.53 7.15 470.53 6.30L470.53 6.30L470.53 6.30Q470.53 5.43 469.85 4.72L469.85 4.72L469.85 4.72Q469.17 4.00 467.80 4.00L467.80 4.00L467.80 4.00Q467.28 4.00 467.17 4.28L467.17 4.28L467.17 4.28Q467.05 4.55 467.05 5.54L467.05 5.54ZM481.57 3.70L481.57 3.70L481.57 3.70Q481.57 3.47 481.98 3.47L481.98 3.47L484.30 3.47L484.30 3.47Q484.62 3.47 485.04 3.45L485.04 3.45L485.04 3.45Q485.46 3.43 485.70 3.43L485.70 3.43L485.70 3.43Q486.96 3.43 487.86 4.07L487.86 4.07L487.86 4.07Q488.75 4.70 488.75 5.78L488.75 5.78L488.75 5.78Q488.75 6.50 488.48 7.03L488.48 7.03L488.48 7.03Q488.21 7.57 487.88 7.81L487.88 7.81L487.88 7.81Q487.55 8.05 487.28 8.22L487.28 8.22L487.28 8.22Q487.00 8.40 487.00 8.46L487.00 8.46L487.00 8.46Q487.00 8.62 488.18 10.27L488.18 10.27L488.18 10.27Q489.36 11.91 489.79 12.38L489.79 12.38L489.79 12.38Q490.32 13.03 491.08 13.03L491.08 13.03L491.08 13.03Q491.27 13.03 491.27 13.20L491.27 13.20L491.27 13.20Q491.27 13.41 491.11 13.48L491.11 13.48L491.11 13.48Q490.94 13.55 490.24 13.55L490.24 13.55L490.24 13.55Q489.58 13.55 489.03 13.23L489.03 13.23L489.03 13.23Q488.33 12.82 486.67 10.09L486.67 10.09L486.67 10.09Q486.57 9.94 486.53 9.87L486.53 9.87L486.53 9.87Q485.86 8.78 485.49 8.78L485.49 8.78L485.20 8.78L484.34 8.78L484.34 8.78Q484.18 8.78 484.14 8.92L484.14 8.92L484.14 8.92Q484.11 9.06 484.11 9.77L484.11 9.77L484.11 9.77Q484.11 10.44 484.11 10.88L484.11 10.88L484.11 10.88Q484.11 11.31 484.11 11.43L484.11 11.43L484.11 11.43Q484.12 11.55 484.12 11.63L484.12 11.63L484.12 11.63Q484.12 11.70 484.12 11.75L484.12 11.75L484.12 11.75Q484.12 12.32 484.39 12.63L484.39 12.63L484.39 12.63Q484.65 12.95 484.98 13.00L484.98 13.00L484.98 13.00Q485.31 13.05 485.58 13.11L485.58 13.11L485.58 13.11Q485.84 13.17 485.84 13.31L485.84 13.31L485.84 13.31Q485.84 13.54 485.59 13.54L485.59 13.54L485.59 13.54Q485.58 13.54 484.62 13.49L484.62 13.49L484.62 13.49Q483.67 13.44 483.59 13.44L483.59 13.44L483.59 13.44Q483.18 13.44 482.62 13.47L482.62 13.47L482.62 13.47Q482.06 13.50 482.05 13.50L482.05 13.50L482.05 13.50Q481.75 13.50 481.75 13.27L481.75 13.27L481.75 13.27Q481.75 13.12 481.94 13.05L481.94 13.05L481.94 13.05Q482.12 12.99 482.34 12.96L482.34 12.96L482.34 12.96Q482.57 12.94 482.75 12.66L482.75 12.66L482.75 12.66Q482.93 12.38 482.93 11.86L482.93 11.86L482.93 11.86Q482.93 11.49 482.94 9.90L482.94 9.90L482.94 9.90Q482.94 8.30 482.94 7.45L482.94 7.45L482.94 7.45Q482.94 6.58 482.94 5.86L482.94 5.86L482.94 5.86Q482.93 5.14 482.93 5.08L482.93 5.08L482.93 5.08Q482.93 4.56 482.72 4.29L482.72 4.29L482.72 4.29Q482.51 4.02 482.25 3.98L482.25 3.98L482.25 3.98Q481.99 3.95 481.78 3.89L481.78 3.89L481.78 3.89Q481.57 3.84 481.57 3.70ZM484.11 5.54L484.11 5.94L484.11 5.94Q484.11 7.38 484.12 7.72L484.12 7.72L484.12 7.72Q484.13 8.06 484.22 8.12L484.22 8.12L484.22 8.12Q484.43 8.25 484.82 8.25L484.82 8.25L484.96 8.25L485.37 8.25L485.37 8.25Q486.56 8.25 487.07 7.70L487.07 7.70L487.07 7.70Q487.58 7.15 487.58 6.30L487.58 6.30L487.58 6.30Q487.58 5.43 486.90 4.72L486.90 4.72L486.90 4.72Q486.22 4.00 484.85 4.00L484.85 4.00L484.85 4.00Q484.33 4.00 484.22 4.28L484.22 4.28L484.22 4.28Q484.11 4.55 484.11 5.54L484.11 5.54ZM498.55 8.69L498.55 8.69L498.55 8.69Q498.55 6.34 499.97 4.84L499.97 4.84L499.97 4.84Q501.38 3.33 503.97 3.33L503.97 3.33L503.97 3.33Q505.18 3.33 506.14 3.68L506.14 3.68L506.14 3.68Q507.11 4.03 507.67 4.54L507.67 4.54L507.67 4.54Q508.23 5.05 508.61 5.71L508.61 5.71L508.61 5.71Q508.98 6.37 509.12 6.92L509.12 6.92L509.12 6.92Q509.26 7.48 509.26 7.95L509.26 7.95L509.26 7.95Q509.26 9.86 508.52 11.16L508.52 11.16L508.52 11.16Q507.78 12.47 506.57 13.07L506.57 13.07L506.57 13.07Q505.36 13.66 503.78 13.66L503.78 13.66L503.78 13.66Q502.11 13.66 500.90 12.94L500.90 12.94L500.90 12.94Q499.69 12.21 499.12 11.10L499.12 11.10L499.12 11.10Q498.55 10.00 498.55 8.69ZM499.79 7.98L499.79 7.98L499.79 7.98Q499.79 8.54 499.94 9.19L499.94 9.19L499.94 9.19Q500.09 9.84 500.44 10.54L500.44 10.54L500.44 10.54Q500.79 11.23 501.29 11.78L501.29 11.78L501.29 11.78Q501.79 12.33 502.55 12.69L502.55 12.69L502.55 12.69Q503.31 13.05 504.22 13.05L504.22 13.05L504.22 13.05Q504.70 13.05 505.23 12.90L505.23 12.90L505.23 12.90Q505.75 12.75 506.27 12.45L506.27 12.45L506.27 12.45Q506.79 12.14 507.19 11.70L507.19 11.70L507.19 11.70Q507.60 11.26 507.86 10.62L507.86 10.62L507.86 10.62Q508.12 9.98 508.12 9.24L508.12 9.24L508.12 9.24Q508.12 6.71 506.79 5.30L506.79 5.30L506.79 5.30Q505.46 3.89 503.50 3.89L503.50 3.89L503.50 3.89Q501.96 3.89 500.87 4.93L500.87 4.93L500.87 4.93Q499.79 5.96 499.79 7.98ZM516.87 3.71L516.87 3.71L516.87 3.71Q516.87 3.51 517.24 3.51L517.24 3.51L517.24 3.51Q517.33 3.51 517.78 3.54L517.78 3.54L517.78 3.54Q518.24 3.56 518.78 3.56L518.78 3.56L518.78 3.56Q519.18 3.56 519.57 3.54L519.57 3.54L519.57 3.54Q519.96 3.51 519.99 3.51L519.99 3.51L519.99 3.51Q520.11 3.51 520.15 3.55L520.15 3.55L520.15 3.55Q520.18 3.58 520.18 3.68L520.18 3.68L520.18 3.68Q520.18 3.77 519.88 3.92L519.88 3.92L519.88 3.92Q519.58 4.07 519.58 4.34L519.58 4.34L519.58 4.34Q519.58 4.47 519.64 4.65L519.64 4.65L519.64 4.65Q519.69 4.83 519.86 5.22L519.86 5.22L519.86 5.22Q520.03 5.61 520.22 6.03L520.22 6.03L520.22 6.03Q520.41 6.45 520.80 7.33L520.80 7.33L520.80 7.33Q521.19 8.20 521.57 9.07L521.57 9.07L521.57 9.07Q521.67 9.30 521.86 9.74L521.86 9.74L521.86 9.74Q522.05 10.18 522.17 10.46L522.17 10.46L522.17 10.46Q522.28 10.74 522.42 11.05L522.42 11.05L522.42 11.05Q522.56 11.37 522.66 11.52L522.66 11.52L522.66 11.52Q522.75 11.68 522.79 11.68L522.79 11.68L522.79 11.68Q522.84 11.68 523.24 10.81L523.24 10.81L523.24 10.81Q523.63 9.94 523.94 9.17L523.94 9.17L523.94 9.17Q523.99 9.04 524.07 8.89L524.07 8.89L524.07 8.89Q524.15 8.74 524.18 8.63L524.18 8.63L524.18 8.63Q524.22 8.53 524.22 8.41L524.22 8.41L524.22 8.41Q524.22 8.25 523.38 6.36L523.38 6.36L523.38 6.36Q522.54 4.48 522.30 4.21L522.30 4.21L522.30 4.21Q522.24 4.14 522.19 4.10L522.19 4.10L522.19 4.10Q522.13 4.06 522.08 4.02L522.08 4.02L522.08 4.02Q522.03 3.99 522.00 3.97L522.00 3.97L522.00 3.97Q521.96 3.95 521.91 3.94L521.91 3.94L521.91 3.94Q521.85 3.93 521.83 3.93L521.83 3.93L521.83 3.93Q521.81 3.93 521.75 3.93L521.75 3.93L521.75 3.93Q521.68 3.92 521.67 3.92L521.67 3.92L521.67 3.92Q521.28 3.88 521.19 3.84L521.19 3.84L521.19 3.84Q521.11 3.81 521.11 3.70L521.11 3.70L521.11 3.70Q521.11 3.50 521.51 3.50L521.51 3.50L521.51 3.50Q521.60 3.50 522.06 3.53L522.06 3.53L522.06 3.53Q522.52 3.56 523.05 3.56L523.05 3.56L523.05 3.56Q523.08 3.56 523.43 3.53L523.43 3.53L523.43 3.53Q523.78 3.50 523.98 3.50L523.98 3.50L523.98 3.50Q524.40 3.50 524.40 3.61L524.40 3.61L524.40 3.61Q524.40 3.70 524.24 3.78L524.24 3.78L524.24 3.78Q524.09 3.86 523.94 4.00L523.94 4.00L523.94 4.00Q523.80 4.13 523.80 4.33L523.80 4.33L523.80 4.33Q523.80 4.59 524.23 5.57L524.23 5.57L524.23 5.57Q524.26 5.63 524.42 6.03L524.42 6.03L524.42 6.03Q524.58 6.44 524.71 6.71L524.71 6.71L524.71 6.71Q524.83 6.99 524.89 6.99L524.89 6.99L524.89 6.99Q525.00 6.99 525.45 5.76L525.45 5.76L525.45 5.76Q525.90 4.54 525.90 4.31L525.90 4.31L525.90 4.31Q525.90 4.06 525.69 3.96L525.69 3.96L525.69 3.96Q525.48 3.85 525.27 3.80L525.27 3.80L525.27 3.80Q525.06 3.75 525.06 3.64L525.06 3.64L525.06 3.64Q525.06 3.49 525.36 3.49L525.36 3.49L525.36 3.49Q525.45 3.49 525.78 3.50L525.78 3.50L525.78 3.50Q526.12 3.51 526.26 3.51L526.26 3.51L526.50 3.51L526.50 3.51Q526.69 3.51 527.24 3.47L527.24 3.47L527.37 3.47L527.37 3.47Q527.55 3.47 527.55 3.61L527.55 3.61L527.55 3.61Q527.55 3.75 527.28 3.84L527.28 3.84L527.28 3.84Q527.02 3.92 526.92 4.02L526.92 4.02L526.92 4.02Q526.69 4.24 526.53 4.66L526.53 4.66L526.53 4.66Q526.23 5.38 525.83 6.33L525.83 6.33L525.83 6.33Q525.41 7.31 525.34 7.50L525.34 7.50L525.34 7.50Q525.27 7.70 525.27 7.85L525.27 7.85L525.27 7.85Q525.27 7.97 526.12 9.87L526.12 9.87L526.12 9.87Q526.97 11.77 527.13 11.77L527.13 11.77L527.13 11.77Q527.30 11.77 528.76 8.24L528.76 8.24L528.76 8.24Q530.22 4.70 530.22 4.35L530.22 4.35L530.22 4.35Q530.22 4.13 530.06 4.01L530.06 4.01L530.06 4.01Q529.90 3.89 529.70 3.87L529.70 3.87L529.70 3.87Q529.51 3.85 529.35 3.80L529.35 3.80L529.35 3.80Q529.19 3.75 529.19 3.64L529.19 3.64L529.19 3.64Q529.19 3.54 529.23 3.52L529.23 3.52L529.23 3.52Q529.27 3.50 529.45 3.50L529.45 3.50L529.45 3.50Q529.49 3.50 529.77 3.51L529.77 3.51L529.77 3.51Q530.05 3.51 530.33 3.51L530.33 3.51L530.33 3.51Q530.59 3.51 530.90 3.50L530.90 3.50L530.90 3.50Q531.22 3.49 531.58 3.49L531.58 3.49L531.58 3.49Q531.86 3.49 531.86 3.68L531.86 3.68L531.86 3.68Q531.86 3.78 531.78 3.84L531.78 3.84L531.78 3.84Q531.71 3.89 531.55 3.98L531.55 3.98L531.55 3.98Q531.40 4.06 531.29 4.17L531.29 4.17L531.29 4.17Q531.22 4.24 531.17 4.31L531.17 4.31L531.17 4.31Q531.12 4.38 531.06 4.49L531.06 4.49L531.06 4.49Q531.01 4.59 530.97 4.66L530.97 4.66L530.97 4.66Q530.94 4.73 530.86 4.91L530.86 4.91L530.86 4.91Q530.78 5.08 530.74 5.18L530.74 5.18L530.74 5.18Q529.66 7.59 528.33 10.58L528.33 10.58L528.33 10.58Q527.27 13.01 527.07 13.41L527.07 13.41L527.07 13.41Q526.88 13.82 526.76 13.82L526.76 13.82L526.76 13.82Q526.69 13.82 526.60 13.64L526.60 13.64L526.60 13.64Q526.50 13.47 526.32 13.05L526.32 13.05L526.32 13.05Q526.15 12.64 526.12 12.57L526.12 12.57L526.12 12.57Q525.98 12.26 525.75 11.72L525.75 11.72L525.75 11.72Q525.52 11.17 525.36 10.79L525.36 10.79L525.36 10.79Q525.20 10.42 525.03 10.02L525.03 10.02L525.03 10.02Q524.86 9.63 524.75 9.43L524.75 9.43L524.75 9.43Q524.64 9.23 524.59 9.23L524.59 9.23L524.59 9.23Q524.45 9.23 523.65 11.16L523.65 11.16L523.65 11.16Q522.84 13.09 522.79 13.31L522.79 13.31L522.79 13.31Q522.77 13.37 522.75 13.43L522.75 13.43L522.75 13.43Q522.73 13.48 522.72 13.52L522.72 13.52L522.72 13.52Q522.70 13.57 522.69 13.61L522.69 13.61L522.69 13.61Q522.68 13.65 522.66 13.68L522.66 13.68L522.66 13.68Q522.65 13.71 522.64 13.73L522.64 13.73L522.64 13.73Q522.63 13.76 522.62 13.78L522.62 13.78L522.62 13.78Q522.61 13.80 522.59 13.82L522.59 13.82L522.59 13.82Q522.58 13.83 522.56 13.84L522.56 13.84L522.56 13.84Q522.55 13.85 522.54 13.85L522.54 13.85L522.54 13.85Q522.52 13.86 522.49 13.86L522.49 13.86L522.49 13.86Q522.37 13.86 522.19 13.46L522.19 13.46L522.19 13.46Q522.00 13.06 521.53 11.89L521.53 11.89L521.53 11.89Q521.05 10.72 520.56 9.65L520.56 9.65L520.56 9.65Q519.75 7.87 518.84 5.63L518.84 5.63L518.84 5.63Q518.57 4.96 518.27 4.57L518.27 4.57L518.27 4.57Q517.96 4.19 517.72 4.09L517.72 4.09L517.72 4.09Q517.48 3.99 517.29 3.98L517.29 3.98L517.29 3.98Q517.09 3.96 516.98 3.92L516.98 3.92L516.98 3.92Q516.87 3.88 516.87 3.71Z"></path></g></svg>